<svg id="Layer_2" data-name="Layer 2" xmlns="http://www.w3.org/2000/svg" viewBox="0 0 196 145.19"><defs><style>.cls-1{fill:#00072d;stroke-width:6px;}.cls-1,.cls-2{stroke:#fff8e1;stroke-miterlimit:10;}.cls-2{fill:none;}</style></defs><title>locked_level</title><g id="_Group_" data-name="&lt;Group&gt;"><g id="_Group_2" data-name="&lt;Group&gt;"><rect id="_Rectangle_" data-name="&lt;Rectangle&gt;" class="cls-1" x="3" y="3" width="190" height="139.19"/></g><g id="_Group_3" data-name="&lt;Group&gt;"><path id="_Compound_Path_" data-name="&lt;Compound Path&gt;" class="cls-2" d="M796.52,1489.8v-11.29a17.66,17.66,0,0,0-35.32,0v11.21h0.16c-3.12,4.87-5,8.92-5,14.27a22.56,22.56,0,0,0,45.13.12C801.48,1498.66,800.17,1493.7,796.52,1489.8ZM781.9,1504v7.43c0,1.23-1.72,2.66-2.95,2.66h-0.32c-1.23,0-1.6-1.43-1.6-2.66V1504c-2.44-.82-2.67-2.34-2.67-4.09a4.58,4.58,0,0,1,4.55-4.74,5,5,0,0,1,5.06,4.74C784,1501.65,781.9,1503.17,781.9,1504Zm9.74-18.42a22.63,22.63,0,0,0-25.58.16v-7.22a12.79,12.79,0,0,1,25.58,0v7.06Z" transform="translate(-680.92 -1421.24)"/></g></g></svg>