<svg id="Layer_2" data-name="Layer 2" xmlns="http://www.w3.org/2000/svg" xmlns:xlink="http://www.w3.org/1999/xlink" viewBox="0 0 313.87 313.87"><defs><style>.cls-1{fill:#00072d;stroke-width:8px;stroke:url(#New_Gradient_Swatch_2);}.cls-1,.cls-2{stroke-miterlimit:10;}.cls-2{fill:#f2f2f2;stroke-width:3px;stroke:url(#New_Gradient_Swatch_2-2);}</style><linearGradient id="New_Gradient_Swatch_2" y1="156.94" x2="313.87" y2="156.94" gradientUnits="userSpaceOnUse"><stop offset="0" stop-color="#36b277"/><stop offset="1" stop-color="#b23636"/></linearGradient><linearGradient id="New_Gradient_Swatch_2-2" x1="442.4" y1="1289.04" x2="579.24" y2="1289.04" xlink:href="#New_Gradient_Swatch_2"/></defs><title>logo_round</title><g id="_Group_" data-name="&lt;Group&gt;"><rect id="_Rectangle_" data-name="&lt;Rectangle&gt;" class="cls-1" x="4" y="4" width="305.87" height="305.87" rx="152.94" ry="152.94"/><g id="_Group_2" data-name="&lt;Group&gt;"><path id="_Compound_Path_" data-name="&lt;Compound Path&gt;" class="cls-2" d="M451.36,1364.84a101,101,0,0,0,51.08,14.41c29.14,0,46.17-15.39,46.17-37.65,0-20.63-11.79-32.41-41.58-43.87-36-12.77-58.28-31.43-58.28-62.54,0-34.38,28.49-59.92,71.38-59.92,22.59,0,39,5.24,48.79,10.8L561,1209.31a87.89,87.89,0,0,0-41.91-10.48c-30.12,0-41.58,18-41.58,33.07,0,20.63,13.42,30.78,43.87,42.57,37.33,14.41,56.32,32.41,56.32,64.83,0,34.05-25.21,63.52-77.27,63.52-21.28,0-44.53-6.22-56.32-14.08Z" transform="translate(-355.06 -1132.1)"/></g></g></svg>