<svg id="Layer_2" data-name="Layer 2" xmlns="http://www.w3.org/2000/svg" xmlns:xlink="http://www.w3.org/1999/xlink" viewBox="0 0 513.65 420.07"><defs><style>.cls-1{font-size:67.03px;letter-spacing:2px;}.cls-1,.cls-6{fill:#fff;font-family:Myriad Pro;}.cls-2{letter-spacing:-2px;}.cls-3{letter-spacing:1px;}.cls-4{letter-spacing:3px;}.cls-5{letter-spacing:5px;}.cls-6{font-size:21.36px;}.cls-7{fill:#00072d;stroke-width:8px;stroke:url(#New_Gradient_Swatch_2);}.cls-7,.cls-8{stroke-miterlimit:10;}.cls-8{fill:#f2f2f2;stroke-width:3px;stroke:url(#New_Gradient_Swatch_2-2);}</style><linearGradient id="New_Gradient_Swatch_2" x1="99.89" y1="156.94" x2="413.76" y2="156.94" gradientUnits="userSpaceOnUse"><stop offset="0" stop-color="#36b277"/><stop offset="1" stop-color="#b23636"/></linearGradient><linearGradient id="New_Gradient_Swatch_2-2" x1="1765.78" y1="332.07" x2="1902.63" y2="332.07" xlink:href="#New_Gradient_Swatch_2"/></defs><title>logo_round_2</title><g id="_Group_" data-name="&lt;Group&gt;"><text class="cls-1" transform="translate(0 386.2)">S<tspan class="cls-2" x="35.73" y="0">T</tspan><tspan x="66.69" y="0">A</tspan><tspan x="110.13" y="0">M</tspan><tspan class="cls-3" x="166.7" y="0">P</tspan><tspan x="203.91" y="0">-</tspan><tspan x="226.9" y="0">A</tspan><tspan x="270.4" y="0">-L</tspan><tspan class="cls-4" x="327.98" y="0">E</tspan><tspan class="cls-5" x="364.71" y="0">T</tspan><tspan x="403.25" y="0">TER</tspan></text><text class="cls-6" transform="translate(145.19 414.73)">T<tspan x="10.1" y="0">an</tspan><tspan x="33.97" y="0">g</tspan><tspan x="46.63" y="0">ible Spelling</tspan><tspan x="167.43" y="0"> </tspan><tspan x="171.94" y="0">T</tspan><tspan x="182.45" y="0">u</tspan><tspan x="195.08" y="0">t</tspan><tspan x="202.87" y="0">or</tspan></text><rect id="_Rectangle_" data-name="&lt;Rectangle&gt;" class="cls-7" x="103.89" y="4" width="305.87" height="305.87" rx="152.94" ry="152.94"/><g id="_Group_2" data-name="&lt;Group&gt;"><path id="_Compound_Path_" data-name="&lt;Compound Path&gt;" class="cls-8" d="M1774.74,407.87a101,101,0,0,0,51.08,14.41c29.14,0,46.17-15.39,46.17-37.65,0-20.63-11.79-32.41-41.58-43.87-36-12.77-58.28-31.43-58.28-62.54,0-34.38,28.49-59.92,71.38-59.92,22.59,0,39,5.24,48.79,10.8l-7.86,23.25a87.89,87.89,0,0,0-41.91-10.48c-30.12,0-41.58,18-41.58,33.07,0,20.63,13.42,30.78,43.87,42.57,37.33,14.41,56.32,32.41,56.32,64.83,0,34.05-25.21,63.52-77.27,63.52-21.28,0-44.53-6.22-56.32-14.08Z" transform="translate(-1578.56 -175.13)"/></g></g></svg>