<svg id="Layer_2" data-name="Layer 2" xmlns="http://www.w3.org/2000/svg" xmlns:xlink="http://www.w3.org/1999/xlink" viewBox="0 0 410.54 459.48"><defs><style>.cls-1,.cls-2{font-size:50px;}.cls-1,.cls-2,.cls-5{fill:#fff;font-family:Roboto;}.cls-1,.cls-3{letter-spacing:2px;}.cls-4{white-space:pre;}.cls-5{font-size:17.67px;}.cls-6{fill:#00072d;stroke-width:8px;stroke:url(#New_Gradient_Swatch_2);}.cls-6,.cls-7{stroke-miterlimit:10;}.cls-7{fill:#f2f2f2;stroke-width:3px;stroke:url(#New_Gradient_Swatch_2-2);}</style><linearGradient id="New_Gradient_Swatch_2" x1="2297.47" y1="1724.64" x2="2558.4" y2="1724.64" gradientTransform="translate(-1045.71 -491.12)" gradientUnits="userSpaceOnUse"><stop offset="0" stop-color="#36b277"/><stop offset="1" stop-color="#b23636"/></linearGradient><linearGradient id="New_Gradient_Swatch_2-2" x1="1324.36" y1="1233.52" x2="1438.09" y2="1233.52" gradientTransform="matrix(1, 0, 0, 1, 0, 0)" xlink:href="#New_Gradient_Swatch_2"/></defs><title>logo_diamond</title><g id="_Group_" data-name="&lt;Group&gt;"><text class="cls-1" transform="translate(177.92 42.77)">A</text><text class="cls-2" transform="translate(30.25 201.78) rotate(-45)"><tspan class="cls-3">S</tspan><tspan x="31.66" y="0">T</tspan><tspan class="cls-3" x="61.57" y="0">AMP </tspan></text><text class="cls-1" transform="translate(227.67 62.34) rotate(45)"><tspan class="cls-4">  L</tspan><tspan x="57.66" y="0">E</tspan><tspan x="88.57" y="0">T</tspan><tspan x="120.79" y="0">TER</tspan></text><text class="cls-5" transform="translate(162.02 454.69)">Spelling</text><text class="cls-5" transform="translate(85.38 369.34) rotate(45)">T<tspan x="10.28" y="0">angible</tspan></text><text class="cls-5" transform="translate(260.54 420.24) rotate(-45)">T<tspan x="10.44" y="0">u</tspan><tspan x="20.85" y="0">t</tspan><tspan x="27.06" y="0">or</tspan></text><rect id="_Rectangle_" data-name="&lt;Rectangle&gt;" class="cls-6" x="1255.76" y="1107.05" width="252.93" height="252.93" transform="translate(90.08 -1608.42) rotate(45)"/><g id="_Group_2" data-name="&lt;Group&gt;"><path id="_Compound_Path_" data-name="&lt;Compound Path&gt;" class="cls-7" d="M1332.08,1296.2a83.48,83.48,0,0,0,42.24,11.91c24.1,0,38.18-12.73,38.18-31.14,0-17.06-9.75-26.8-34.39-36.28-29.78-10.56-48.19-26-48.19-51.71,0-28.43,23.56-49.55,59-49.55,18.68,0,32.22,4.33,40.34,8.93l-6.5,19.22a72.68,72.68,0,0,0-34.66-8.66c-24.91,0-34.39,14.89-34.39,27.35,0,17.06,11.1,25.45,36.28,35.2,30.87,11.91,46.57,26.8,46.57,53.61,0,28.16-20.85,52.53-63.9,52.53-17.6,0-36.82-5.14-46.57-11.64Z" transform="translate(-1187 -992.33)"/></g></g></svg>