<svg id="Layer_1" data-name="Layer 1" xmlns="http://www.w3.org/2000/svg" xmlns:xlink="http://www.w3.org/1999/xlink" viewBox="0 0 171.1 40"><defs><style>.cls-1{fill:#fff8e1;}.cls-2{fill:#00072d;}.cls-3{fill:url(#New_Gradient_Swatch_3);}.cls-4{fill:#f2f2f2;}.cls-5{fill:url(#New_Gradient_Swatch_3-2);}</style><linearGradient id="New_Gradient_Swatch_3" x1="34.45" y1="2736" x2="74.45" y2="2736" gradientUnits="userSpaceOnUse"><stop offset="0" stop-color="#36b277"/><stop offset="1" stop-color="#b23636"/></linearGradient><linearGradient id="New_Gradient_Swatch_3-2" x1="45.58" y1="2736" x2="63.02" y2="2736" xlink:href="#New_Gradient_Swatch_3"/></defs><title>logo_settings_admin</title><g id="_Group_" data-name="&lt;Group&gt;"><g id="_Group_2" data-name="&lt;Group&gt;"><path id="_Compound_Path_" data-name="&lt;Compound Path&gt;" class="cls-1" d="M84.71,2735a7.92,7.92,0,0,1-3.16-1.53,2.93,2.93,0,0,1-1-2.25,3.1,3.1,0,0,1,1.21-2.5,4.81,4.81,0,0,1,3.14-1,5.24,5.24,0,0,1,2.35.51,3.87,3.87,0,0,1,1.6,1.41,3.6,3.6,0,0,1,.57,2h-1.7a2.34,2.34,0,0,0-.74-1.83,3,3,0,0,0-2.08-.67,3.07,3.07,0,0,0-1.95.55,1.83,1.83,0,0,0-.7,1.53,1.65,1.65,0,0,0,.66,1.33,6.49,6.49,0,0,0,2.26,1,10.46,10.46,0,0,1,2.5,1,3.78,3.78,0,0,1,1.34,1.26,3.22,3.22,0,0,1,.44,1.7,3,3,0,0,1-1.21,2.49,5.18,5.18,0,0,1-3.24.94,6,6,0,0,1-2.46-.51,4.13,4.13,0,0,1-1.76-1.38,3.38,3.38,0,0,1-.62-2h1.7a2.2,2.2,0,0,0,.86,1.83,3.6,3.6,0,0,0,2.29.67,3.32,3.32,0,0,0,2-.54,1.77,1.77,0,0,0,.71-1.49,1.74,1.74,0,0,0-.66-1.46A7.62,7.62,0,0,0,84.71,2735Z" transform="translate(-34.45 -2716)"/><path id="_Compound_Path_2" data-name="&lt;Compound Path&gt;" class="cls-1" d="M94,2728.85v2.3H95.8v1.26H94v5.91a1.32,1.32,0,0,0,.24.86,1,1,0,0,0,.81.29,3.94,3.94,0,0,0,.77-0.11v1.31a4.75,4.75,0,0,1-1.25.17,2,2,0,0,1-1.64-.66,2.83,2.83,0,0,1-.55-1.87v-5.9H90.67v-1.26H92.4v-2.3H94Z" transform="translate(-34.45 -2716)"/><path id="_Compound_Path_3" data-name="&lt;Compound Path&gt;" class="cls-1" d="M104,2740.66a3.42,3.42,0,0,1-.23-1,3.63,3.63,0,0,1-2.71,1.18,3.36,3.36,0,0,1-2.31-.79,2.57,2.57,0,0,1-.9-2,2.69,2.69,0,0,1,1.13-2.31,5.32,5.32,0,0,1,3.18-.82h1.58v-0.75a1.83,1.83,0,0,0-.51-1.36,2.05,2.05,0,0,0-1.5-.5,2.37,2.37,0,0,0-1.46.44,1.29,1.29,0,0,0-.59,1.06H98.07a2.24,2.24,0,0,1,.51-1.37,3.45,3.45,0,0,1,1.37-1.05,4.61,4.61,0,0,1,1.9-.39,3.76,3.76,0,0,1,2.58.82,3,3,0,0,1,1,2.26v4.38a5.35,5.35,0,0,0,.33,2.08v0.14H104Zm-2.7-1.24a2.86,2.86,0,0,0,1.45-.4,2.39,2.39,0,0,0,1-1v-2h-1.27q-3,0-3,1.75a1.48,1.48,0,0,0,.51,1.2A2,2,0,0,0,101.32,2739.42Z" transform="translate(-34.45 -2716)"/><path id="_Compound_Path_4" data-name="&lt;Compound Path&gt;" class="cls-1" d="M109.92,2731.15l0,1.05a3.51,3.51,0,0,1,2.82-1.23,2.72,2.72,0,0,1,2.72,1.53,3.6,3.6,0,0,1,1.23-1.11,3.65,3.65,0,0,1,1.8-.42q3.13,0,3.18,3.31v6.37h-1.63v-6.28a2.19,2.19,0,0,0-.47-1.53,2.06,2.06,0,0,0-1.56-.5,2.16,2.16,0,0,0-1.5.54,2.2,2.2,0,0,0-.69,1.46v6.31h-1.63v-6.23a1.81,1.81,0,0,0-2-2.07,2.18,2.18,0,0,0-2.19,1.36v6.94h-1.63v-9.51h1.54Z" transform="translate(-34.45 -2716)"/><path id="_Compound_Path_5" data-name="&lt;Compound Path&gt;" class="cls-1" d="M132.65,2736a5.69,5.69,0,0,1-1,3.5,3.18,3.18,0,0,1-2.69,1.33,3.49,3.49,0,0,1-2.72-1.1v4.58h-1.63v-13.17h1.49l0.08,1.05a3.35,3.35,0,0,1,2.76-1.23,3.24,3.24,0,0,1,2.71,1.29,5.76,5.76,0,0,1,1,3.59V2736Zm-1.63-.18a4.2,4.2,0,0,0-.69-2.54,2.21,2.21,0,0,0-1.88-.93,2.39,2.39,0,0,0-2.21,1.31v4.54a2.39,2.39,0,0,0,2.23,1.3,2.2,2.2,0,0,0,1.86-.93A4.59,4.59,0,0,0,131,2735.82Z" transform="translate(-34.45 -2716)"/><path id="_Compound_Path_6" data-name="&lt;Compound Path&gt;" class="cls-1" d="M138.55,2735.89h-4.29v-1.33h4.29v1.33Z" transform="translate(-34.45 -2716)"/><path id="_Compound_Path_7" data-name="&lt;Compound Path&gt;" class="cls-1" d="M147.9,2737.31h-5.36l-1.2,3.35H139.6l4.89-12.8H146l4.9,12.8h-1.73Zm-4.85-1.38h4.35l-2.18-6Z" transform="translate(-34.45 -2716)"/><path id="_Compound_Path_8" data-name="&lt;Compound Path&gt;" class="cls-1" d="M156.16,2735.89h-4.29v-1.33h4.29v1.33Z" transform="translate(-34.45 -2716)"/><path id="_Compound_Path_9" data-name="&lt;Compound Path&gt;" class="cls-1" d="M160.14,2739.28h6.06v1.38h-7.76v-12.8h1.7v11.42Z" transform="translate(-34.45 -2716)"/><path id="_Compound_Path_10" data-name="&lt;Compound Path&gt;" class="cls-1" d="M172.27,2740.83a4.15,4.15,0,0,1-3.15-1.27,4.71,4.71,0,0,1-1.21-3.4v-0.3a5.7,5.7,0,0,1,.54-2.53,4.22,4.22,0,0,1,1.51-1.74,3.8,3.8,0,0,1,2.1-.63,3.56,3.56,0,0,1,2.88,1.22,5.29,5.29,0,0,1,1,3.5v0.68h-6.44a3.38,3.38,0,0,0,.82,2.27,2.58,2.58,0,0,0,2,.87,2.83,2.83,0,0,0,1.46-.35,3.67,3.67,0,0,0,1-.93l1,0.77A4,4,0,0,1,172.27,2740.83Zm-0.2-8.53a2.17,2.17,0,0,0-1.65.72,3.48,3.48,0,0,0-.83,2h4.76v-0.12a3.1,3.1,0,0,0-.67-1.92A2,2,0,0,0,172.07,2732.31Z" transform="translate(-34.45 -2716)"/><path id="_Compound_Path_11" data-name="&lt;Compound Path&gt;" class="cls-1" d="M180.52,2728.85v2.3h1.78v1.26h-1.78v5.91a1.32,1.32,0,0,0,.24.86,1,1,0,0,0,.81.29,3.94,3.94,0,0,0,.77-0.11v1.31a4.75,4.75,0,0,1-1.25.17,2,2,0,0,1-1.64-.66,2.83,2.83,0,0,1-.55-1.87v-5.9h-1.73v-1.26h1.73v-2.3h1.63Z" transform="translate(-34.45 -2716)"/><path id="_Compound_Path_12" data-name="&lt;Compound Path&gt;" class="cls-1" d="M186.85,2728.85v2.3h1.78v1.26h-1.78v5.91a1.32,1.32,0,0,0,.24.86,1,1,0,0,0,.81.29,3.94,3.94,0,0,0,.77-0.11v1.31a4.75,4.75,0,0,1-1.25.17,2,2,0,0,1-1.64-.66,2.83,2.83,0,0,1-.55-1.87v-5.9h-1.73v-1.26h1.73v-2.3h1.63Z" transform="translate(-34.45 -2716)"/><path id="_Compound_Path_13" data-name="&lt;Compound Path&gt;" class="cls-1" d="M194.92,2740.83a4.15,4.15,0,0,1-3.15-1.27,4.71,4.71,0,0,1-1.21-3.4v-0.3a5.7,5.7,0,0,1,.54-2.53,4.22,4.22,0,0,1,1.51-1.74,3.8,3.8,0,0,1,2.1-.63,3.56,3.56,0,0,1,2.88,1.22,5.29,5.29,0,0,1,1,3.5v0.68h-6.44a3.38,3.38,0,0,0,.82,2.27,2.58,2.58,0,0,0,2,.87,2.83,2.83,0,0,0,1.46-.35,3.67,3.67,0,0,0,1-.93l1,0.77A4,4,0,0,1,194.92,2740.83Zm-0.2-8.53a2.17,2.17,0,0,0-1.65.72,3.48,3.48,0,0,0-.83,2H197v-0.12a3.1,3.1,0,0,0-.67-1.92A2,2,0,0,0,194.71,2732.31Z" transform="translate(-34.45 -2716)"/><path id="_Compound_Path_14" data-name="&lt;Compound Path&gt;" class="cls-1" d="M205.55,2732.61a4.87,4.87,0,0,0-.8-0.06,2.14,2.14,0,0,0-2.17,1.36v6.75H201v-9.51h1.58l0,1.1a2.53,2.53,0,0,1,2.27-1.27,1.66,1.66,0,0,1,.72.12v1.51Z" transform="translate(-34.45 -2716)"/></g><g id="_Group_3" data-name="&lt;Group&gt;"><g id="_Group_4" data-name="&lt;Group&gt;"><rect id="_Rectangle_" data-name="&lt;Rectangle&gt;" class="cls-2" x="0.51" y="0.51" width="38.98" height="38.98" rx="19.49" ry="19.49"/><path id="_Compound_Path_15" data-name="&lt;Compound Path&gt;" class="cls-3" d="M54.45,2756a20,20,0,1,1,20-20A20,20,0,0,1,54.45,2756Zm0-39a19,19,0,0,0,0,38h0A19,19,0,0,0,54.45,2717Z" transform="translate(-34.45 -2716)"/></g><g id="_Group_5" data-name="&lt;Group&gt;"><g id="_Group_6" data-name="&lt;Group&gt;"><path id="_Compound_Path_16" data-name="&lt;Compound Path&gt;" class="cls-4" d="M46.72,2745.66a12.87,12.87,0,0,0,6.51,1.84c3.71,0,5.88-2,5.88-4.8,0-2.63-1.5-4.13-5.3-5.59-4.59-1.63-7.43-4-7.43-8,0-4.38,3.63-7.64,9.1-7.64a12.78,12.78,0,0,1,6.22,1.38l-1,3a11.2,11.2,0,0,0-5.34-1.34c-3.84,0-5.3,2.29-5.3,4.21,0,2.63,1.71,3.92,5.59,5.42,4.76,1.84,7.18,4.13,7.18,8.26,0,4.34-3.21,8.1-9.85,8.1a14.53,14.53,0,0,1-7.18-1.79Z" transform="translate(-34.45 -2716)"/><path id="_Compound_Path_17" data-name="&lt;Compound Path&gt;" class="cls-5" d="M53,2750.69a14.83,14.83,0,0,1-7.28-1.83l-0.12-.08,1-3.42,0.21,0.13a12.75,12.75,0,0,0,6.41,1.81c3.51,0,5.69-1.77,5.69-4.61,0-2.49-1.4-4-5.18-5.41-5.15-1.83-7.55-4.42-7.55-8.15,0-4.61,3.82-7.83,9.29-7.83a12.77,12.77,0,0,1,6.31,1.4l0.14,0.08-1.12,3.33-0.2-.11a11,11,0,0,0-5.25-1.31c-3.53,0-5.11,2-5.11,4,0,2.37,1.33,3.64,5.47,5.25,5.18,2,7.3,4.45,7.3,8.44C63,2746.23,60.39,2750.69,53,2750.69Zm-7-2.07a14.67,14.67,0,0,0,7,1.69c7.13,0,9.66-4.26,9.66-7.9,0-3.81-2-6.15-7.05-8.08-3.71-1.43-5.71-2.75-5.71-5.6,0-2.19,1.7-4.41,5.49-4.41a11.37,11.37,0,0,1,5.23,1.25l0.88-2.6a12.62,12.62,0,0,0-6-1.28c-5.24,0-8.91,3.06-8.91,7.44,0,3.55,2.32,6,7.3,7.79,4,1.52,5.43,3.09,5.43,5.77,0,3-2.38,5-6.07,5a13.19,13.19,0,0,1-6.4-1.74Z" transform="translate(-34.45 -2716)"/></g></g></g></g></svg>