<svg id="Layer_2" data-name="Layer 2" xmlns="http://www.w3.org/2000/svg" xmlns:xlink="http://www.w3.org/1999/xlink" viewBox="0 0 471.52 404.52"><defs><style>.cls-1{font-size:55px;}.cls-1,.cls-3{fill:#fff;font-family:Roboto;}.cls-2{letter-spacing:2px;}.cls-3{font-size:21.36px;}.cls-4{fill:#00072d;stroke-width:8px;stroke:url(#New_Gradient_Swatch_2);}.cls-4,.cls-5{stroke-miterlimit:10;}.cls-5{fill:#f2f2f2;stroke-width:3px;stroke:url(#New_Gradient_Swatch_2-2);}</style><linearGradient id="New_Gradient_Swatch_2" x1="78.83" y1="156.94" x2="392.7" y2="156.94" gradientUnits="userSpaceOnUse"><stop offset="0" stop-color="#36b277"/><stop offset="1" stop-color="#b23636"/></linearGradient><linearGradient id="New_Gradient_Swatch_2-2" x1="611.46" y1="336.68" x2="748.31" y2="336.68" xlink:href="#New_Gradient_Swatch_2"/></defs><title>logo_square</title><g id="_Group_" data-name="&lt;Group&gt;"><text class="cls-1" transform="translate(0 369.84)"><tspan class="cls-2">S</tspan><tspan x="34.83" y="0">T</tspan><tspan class="cls-2" x="67.73" y="0">AMP-A-L</tspan><tspan class="cls-2" x="297.54" y="0">E</tspan><tspan class="cls-2" x="331.54" y="0">T</tspan><tspan class="cls-2" x="366.98" y="0">TER</tspan></text><text class="cls-3" transform="translate(120.03 398.73)">T<tspan x="12.43" y="0">angible Spelling</tspan><tspan x="172.25" y="0"> </tspan><tspan x="177.88" y="0">T</tspan><tspan x="190.5" y="0">u</tspan><tspan x="203.09" y="0">t</tspan><tspan x="210.6" y="0">or</tspan></text><rect id="_Rectangle_" data-name="&lt;Rectangle&gt;" class="cls-4" x="82.83" y="4" width="305.87" height="305.87" rx="49.81" ry="49.81"/><g id="_Group_2" data-name="&lt;Group&gt;"><path id="_Compound_Path_" data-name="&lt;Compound Path&gt;" class="cls-5" d="M620.42,412.47a101,101,0,0,0,51.08,14.41c29.14,0,46.17-15.39,46.17-37.65,0-20.63-11.79-32.41-41.58-43.87-36-12.77-58.28-31.43-58.28-62.54,0-34.38,28.49-59.92,71.38-59.92,22.59,0,39,5.24,48.79,10.8l-7.86,23.25a87.89,87.89,0,0,0-41.91-10.48c-30.12,0-41.58,18-41.58,33.07,0,20.63,13.42,30.78,43.87,42.57,37.33,14.41,56.32,32.41,56.32,64.83,0,34.05-25.21,63.52-77.27,63.52-21.28,0-44.53-6.22-56.32-14.08Z" transform="translate(-445.3 -179.74)"/></g></g></svg>