<svg id="Layer_3" data-name="Layer 3" xmlns="http://www.w3.org/2000/svg" viewBox="0 0 30 30"><defs><style>.cls-1{fill:#00072d;}</style></defs><title>logout_button</title><g id="_Group_" data-name="&lt;Group&gt;"><path id="_Path_" data-name="&lt;Path&gt;" class="cls-1" d="M975.85,1867v8.89H973v-6.11H956.77v24.45H973v-6.11h2.82V1897H954v-30h21.85Z" transform="translate(-954 -1867)"/><path id="_Path_2" data-name="&lt;Path&gt;" class="cls-1" d="M984,1882.12c-0.42.68-.84,1.36-1.25,2-0.86,1.42-1.73,2.84-2.56,4.28a0.75,0.75,0,0,1-.79.42c-0.74,0-1.48,0-2.27,0l3.4-5.44h-15.6v-2.82h15.61l-3.4-5.44,0.27,0c0.76,0,1.52,0,2.28,0a0.37,0.37,0,0,1,.37.2l2.53,4.23c0.47,0.78.94,1.54,1.41,2.32v0.23Z" transform="translate(-954 -1867)"/></g></svg>