<svg id="Layer_2" data-name="Layer 2" xmlns="http://www.w3.org/2000/svg" viewBox="0 0 52 52"><defs><style>.cls-1{fill:#fff8e1;}.cls-1,.cls-2{stroke:#00072d;stroke-miterlimit:10;stroke-width:2px;}.cls-2{fill:none;}.cls-3{fill:#00072d;}</style></defs><title>pie_sixty</title><circle class="cls-1" cx="26" cy="26" r="25"/><line class="cls-2" x1="26" y1="1.81" x2="26" y2="26.1"/><line class="cls-2" x1="11.72" y1="45.46" x2="26" y2="25.81"/><path class="cls-3" d="M1290.08,1839.3c2.9,0,2.9-4.5,0-4.5s-2.9,4.5,0,4.5h0Z" transform="translate(-1258.42 -1829.12)"/><path class="cls-3" d="M1309.6,1854.95a43.52,43.52,0,0,0-21.14-24.5c-2.57-1.33-4.85,2.55-2.27,3.89a38.93,38.93,0,0,1,19.07,21.81c1,2.71,5.3,1.55,4.34-1.2h0Z" transform="translate(-1258.42 -1829.12)"/><path class="cls-3" d="M1290.7,1835.91c8.21,2.48,9.47,10.19,14.21,16.21,1.55,2,4.08-.27,3.76-2.19a16.69,16.69,0,0,0-4.28-8.69c-1.94-2.15-5.12,1-3.18,3.18a12.52,12.52,0,0,1,3.12,6.7l3.76-2.19c-2.67-3.4-3.85-7.69-6.56-11.07a19.27,19.27,0,0,0-9.63-6.3c-2.78-.84-4,3.5-1.2,4.34h0Z" transform="translate(-1258.42 -1829.12)"/><path class="cls-3" d="M1289.62,1834.6a3.33,3.33,0,0,0-1.2-2.14c-1.75-1.66-4.09.06-3.76,2.19a90.36,90.36,0,0,1,.52,23.17h4.5c-0.12-3.17-.2-6.34-0.22-9.52s-0.54-7.44.91-10.44h-3.89c2.18,3.11,5.64,4.88,8,8A96.27,96.27,0,0,1,1302,1858c1.12,2.08,4.06,1,4.19-1.14a22.64,22.64,0,0,0,.08-3.44c0-2.89-4.54-2.9-4.5,0a22.64,22.64,0,0,1-.08,3.44l4.19-1.14a100.16,100.16,0,0,0-7.58-12.09,40.76,40.76,0,0,0-3-3.72c-1.4-1.5-3.87-2.69-5-4.29-0.89-1.26-3.09-1.65-3.89,0-3.06,6.32-1.57,15.44-1.31,22.23,0.11,2.94,4.21,2.84,4.5,0a94.78,94.78,0,0,0-.68-24.37l-3.76,2.19,0,0.16c0.5,2.85,4.84,1.64,4.34-1.2h0Z" transform="translate(-1258.42 -1829.12)"/><path class="cls-3" d="M1304.16,1841.55v-0.33a2.25,2.25,0,0,0-4.5,0v0.33a2.25,2.25,0,0,0,4.5,0h0Z" transform="translate(-1258.42 -1829.12)"/><path class="cls-3" d="M1288.38,1844.86a31.79,31.79,0,0,1,6.51,11.75,31.16,31.16,0,0,1,1.14,5.81,31.93,31.93,0,0,1,.12,3.26q-1.28,1.32-1-.41c-0.81-1.35-.34-5.11-0.44-6.7l-0.38-5.74-0.89-13.4a2.25,2.25,0,0,0-4.5,0c-0.56,9.85,1.4,19.37,4.14,28.79a2.26,2.26,0,0,0,4.42-.6,55,55,0,0,0-1-12.24c-0.55-2.84-4.89-1.64-4.34,1.2a49.53,49.53,0,0,1,.86,11l4.42-.6c-2.63-9.05-4.52-18.11-4-27.59H1289c0.55,8.3,1,16.6,1.65,24.89,0.27,3.49,1.2,9.72,6.39,7.93,4.95-1.7,3.77-9,3.12-12.86a36.58,36.58,0,0,0-8.57-17.72c-1.88-2.2-5.05,1-3.18,3.18h0Z" transform="translate(-1258.42 -1829.12)"/><path class="cls-3" d="M1285.51,1855.13c-5.33,5.82-9.19,13.11-14.3,19.2l3.53,2.73a74.45,74.45,0,0,1,6.37-10.29c1.4-1.86,5.78-8,8.34-7.89l-2.17-2.85-3.32,9.65c-1,2.8,3.26,3.79,4.34,1.2a27.19,27.19,0,0,1,8.93-11.45l-3.39-1.94-0.56,8.89c-0.16,2.52,3.87,3.07,4.42.6a68.9,68.9,0,0,0,1.64-16.64c-0.07-3-4.16-2.81-4.5,0-0.36,3,.42,5.38,1.68,8.11,2,4.27,2.08,7.61,2.52,12.18,0.28,2.86,4.78,2.89,4.5,0-0.31-3.17,0-6.4-1-9.49-1.12-3.75-3.74-6.67-3.24-10.81h-4.5a63.76,63.76,0,0,1-1.48,15.44l4.42,0.6,0.56-8.89c0.1-1.59-2-3-3.39-1.94a32.83,32.83,0,0,0-11,14.14l4.34,1.2,3.32-9.65a2.27,2.27,0,0,0-2.17-2.85c-3.82-.23-7.36,4.19-9.62,6.81a71.14,71.14,0,0,0-9,13.6c-1.13,2.15,1.81,4.78,3.53,2.73,5.1-6.07,9-13.4,14.3-19.2,2-2.13-1.22-5.32-3.18-3.18h0Z" transform="translate(-1258.42 -1829.12)"/><path class="cls-3" d="M1304.63,1855.72c0.06,1.06.29,2.65-.22,3.66l1.94-1.11-0.67.09,1.94,1.11a3.05,3.05,0,0,0-5.39-.47c-1.61,2.54.84,5.42,2.84,6.71v-3.89c-1.84.93-2.42,2.26-3.38,4-1.48,2.65-5.5,7.47-9.12,7l1.94,1.11c-1.05-1.44,0-5.57-.13-7.35a10.72,10.72,0,0,0-1.88-5.13c-0.72-1.07-2.57-1.67-3.53-.46a5.32,5.32,0,0,1-5.58,2.23c-2.83-.59-4,3.75-1.2,4.34a9.52,9.52,0,0,0,10-3.39l-3.53-.46c2.53,3.77-.15,7.64,1.4,11.42a3.46,3.46,0,0,0,3.54,2.3c2.62,0,5.11-2,7-3.57a18.82,18.82,0,0,0,3.68-3.53c1-1.34,1.48-3.83,3.06-4.63s1.33-3,0-3.89l-3.6-.09a2.17,2.17,0,0,0,1.94,1.11c3.7-.49,3.61-4,3.44-7.14-0.15-2.88-4.66-2.9-4.5,0h0Z" transform="translate(-1258.42 -1829.12)"/><path class="cls-3" d="M1282.74,1862.15a4.56,4.56,0,0,1-1.16,3.88c-1.32,1.73.85,3.61,2.54,3.31,2.34-.42,3.76-0.6,5.45,1.34s1.64,2.7-.52,3.47-3.81,1.56-6.2,1-4-1.4-6.3-1.11l1.94,1.11c-0.31-.6,2.18-2.43,2.54-2.85,1-1.11,1.61-2.08,3.29-1.11s1.69,3.37,3.7,4.36a2.29,2.29,0,0,0,3.31-1.34,6,6,0,0,0,.27-3.94,2.38,2.38,0,0,0-2.17-1.65c-1.32-.14-2.23.75-3,1.72-0.36.46-.76,1.8-1.17,2.07-0.15.1-3-.07-2.93,0.68,0.4,2.86,4.74,1.64,4.34-1.2-0.81-5.73-9.36-3.22-7.95,2.29,0.76,3,3.94,3,6.45,2.74a5.23,5.23,0,0,0,3-.92c0.26-.21,2.14-2.8,1.24-2.89l-2.17-1.65a2.43,2.43,0,0,1-.27,1.54l3.31-1.34c-1.49-.73-1.66-3.5-3.35-4.52a8,8,0,0,0-6.86-.2c-1.67.83-3.59,3.17-4.78,4.57a5,5,0,0,0-.7,5.91,2.18,2.18,0,0,0,1.94,1.11c2.35-.28,4.41,1,6.72,1.24a12.29,12.29,0,0,0,5.22-.52c2.65-.87,6-1.5,6.75-4.62s-1.09-5.9-3.19-7.85c-3.09-2.88-5.2-2.53-9.14-1.82l2.54,3.31a8.94,8.94,0,0,0,1.61-7.34c-0.48-2.85-4.82-1.64-4.34,1.2h0Z" transform="translate(-1258.42 -1829.12)"/></svg>