<svg id="Layer_2" data-name="Layer 2" xmlns="http://www.w3.org/2000/svg" viewBox="0 0 52 52"><defs><style>.cls-1{fill:#fff8e1;}.cls-1,.cls-2{stroke:#00072d;stroke-miterlimit:10;stroke-width:2px;}.cls-2{fill:none;}.cls-3{fill:#00072d;}</style></defs><title>pie_forty</title><circle class="cls-1" cx="26" cy="26" r="25"/><line class="cls-2" x1="26" y1="1.81" x2="26" y2="26.23"/><line class="cls-2" x1="40.24" y1="45.68" x2="25.73" y2="25.63"/><path class="cls-3" d="M1413.46,1767.16l0.5-.51a1.5,1.5,0,0,0,.39-1.46c-0.57-1.83-1.81-2.32-3.64-1.8s-1.2,2.75.4,2.95c6,0.74,12.77,2.91,15.87,8.49,2.53,4.54,3.25,10.11,4.08,15.16,0.24,1.45,2.62,1.41,2.89,0,0.69-3.55,2-11.74-3.17-12.41a1.51,1.51,0,0,0-1.5,1.5l0.3,16.27a1.51,1.51,0,0,0,2.95.4l1.43-4.5c0.59-1.87-2.22-2.57-2.89-.8-2,5.15-3.62,9.5-7.69,13.35-1.41,1.33.72,3.45,2.12,2.12,4.61-4.36,6.22-8.81,8.46-14.67l-2.89-.8-1.43,4.5,2.95,0.4-0.3-16.27-1.5,1.5c1.64,0.21.43,7.83,0.28,8.61h2.89c-1-6.11-1.95-13.45-6-18.42-4-4.81-10.91-6.7-16.81-7.43l0.4,2.95-0.16-1.25a1.5,1.5,0,0,0,2.12,2.12h0Z" transform="translate(-1383.44 -1761.67)"/><path class="cls-3" d="M1409.86,1768.32c6.67,1.31,13.46,3,16,10.09,1.48,4.09,3,18.53-2.8,20.36l1.69,2.2a63.35,63.35,0,0,1,8.58-10.16l-2.51-1.46c-1.27,3.15-3.91,5.06-6.6,6.92-1.1.76-.86,2.95,0.76,2.8l0.74-.07c1.91-.18,1.92-3.18,0-3l-0.74.07,0.76,2.8c3.44-2.38,6.38-4.75,8-8.71,0.59-1.47-1.51-2.42-2.51-1.46a67.19,67.19,0,0,0-9.05,10.77,1.51,1.51,0,0,0,1.69,2.2c7.51-2.39,6.91-15.86,5.5-21.95-2.23-9.63-9.85-12.55-18.71-14.29-1.89-.37-2.69,2.52-0.8,2.89h0Z" transform="translate(-1383.44 -1761.67)"/><path class="cls-3" d="M1426.17,1805.2c-1.55-2.09.84-4.65,1.37-6.75a33,33,0,0,0,.61-6.69,96.72,96.72,0,0,0-1-17.16c-0.27-1.9-3.16-1.09-2.89.8,1,6.74,1.78,14.42.55,21.18-0.65,3.54-3.75,6.72-1.21,10.14,1.14,1.53,3.74,0,2.59-1.51h0Z" transform="translate(-1383.44 -1761.67)"/><path class="cls-3" d="M1411.62,1770.89a19.08,19.08,0,0,1,9,3.21c3.37,2.61,2.51,6.84,2.36,10.56-0.26,6.15-.08,12.51-1.74,18.47h2.89c-1.63-4.59-.23-10.56.12-15.35,0.25-3.35,1.55-8.09.65-11.28-0.71-2.51-1.88-2.56-4.06-3.72-3.23-1.72-5.57-3-9.31-3.38a1.52,1.52,0,0,0-1.5,1.5c-0.16,5.43-1.56,12.43.39,17.61a34.21,34.21,0,0,0,8.84,12.7,1.52,1.52,0,0,0,2.56-1.06c0.37-8.55,2.77-16.77,1.52-25.36-0.23-1.56-2.49-1.28-2.89,0-2.14,6.87-5.18,15.88-2.88,23.06,0.42,1.3,2.61,1.55,2.89,0a107.13,107.13,0,0,0,1.8-20.48c0-1.8-2.34-1.9-2.95-.4a86.43,86.43,0,0,0-4.71,15.83c-0.37,1.88,2.5,2.69,2.89.8a117.47,117.47,0,0,1,5.3-18.16c0.62-1.62-1.9-2.58-2.74-1.16a58.36,58.36,0,0,0-6.51,15.88l2.95,0.4a41.61,41.61,0,0,1,3.54-13.89,1.5,1.5,0,0,0-2.59-1.51c-2.46,4-5.69,8.25-6.17,13-0.15,1.44,2.21,2.1,2.8.76,2-4.61,3.52-9.48,5.19-14.23,0.56-1.59-2-2.7-2.74-1.16a72.27,72.27,0,0,1-5.39,9.53l2.74,1.16q1.52-5.32,3.32-10.54a1.51,1.51,0,0,0-2.51-1.46l-2.36,2.71,2.51,1.46a6.65,6.65,0,0,1,.52-2.12,1.51,1.51,0,0,0-2.51-1.46l-1,1.14,2.56,1.06-0.18-1.37c-0.25-1.89-3.26-1.91-3,0l0.18,1.37c0.15,1.14,1.61,2.17,2.56,1.06l1-1.14-2.51-1.46a6.65,6.65,0,0,0-.52,2.12c-0.21,1.32,1.42,2.72,2.51,1.46l2.36-2.71-2.51-1.46q-1.8,5.23-3.32,10.54a1.51,1.51,0,0,0,2.74,1.16,72.27,72.27,0,0,0,5.39-9.53l-2.74-1.16c-1.58,4.49-3,9.15-4.89,13.51l2.8,0.76c0.4-3.89,3.74-8.21,5.76-11.46l-2.59-1.51a46.29,46.29,0,0,0-4,15.41c-0.14,1.7,2.54,2,2.95.4a55.81,55.81,0,0,1,6.2-15.16l-2.74-1.16a117.47,117.47,0,0,0-5.3,18.16l2.89,0.8a86.43,86.43,0,0,1,4.71-15.83l-2.95-.4a102.83,102.83,0,0,1-1.7,19.68h2.89c-2.11-6.57.89-15.09,2.88-21.47h-2.89c1.2,8.23-1.27,16.35-1.63,24.56l2.56-1.06c-3.52-3.14-6.91-7.85-8.18-12.42-1.34-4.83-.32-10.75-0.17-15.76l-1.5,1.5c3,0.28,6.94,1.58,9.19,3.82s0.88,6.72.66,9.62c-0.42,5.68-2.11,12.59-.16,18.08a1.51,1.51,0,0,0,2.89,0,55.07,55.07,0,0,0,1.57-12.59c0.19-4.45,1-9.31.37-13.74-0.87-6.49-8.69-9.16-14.42-9.71-1.92-.18-1.91,2.82,0,3h0Z" transform="translate(-1383.44 -1761.67)"/><path class="cls-3" d="M1412.63,1778.88a1.5,1.5,0,0,0,0-3,1.5,1.5,0,0,0,0,3h0Z" transform="translate(-1383.44 -1761.67)"/></svg>