<svg id="Layer_2" data-name="Layer 2" xmlns="http://www.w3.org/2000/svg" viewBox="0 0 52 52"><defs><style>.cls-1{fill:#fff8e1;}.cls-1,.cls-2{stroke:#00072d;stroke-miterlimit:10;stroke-width:2px;}.cls-2{fill:none;}.cls-3{fill:#00072d;}</style></defs><title>pie_twenty</title><circle class="cls-1" cx="26" cy="26" r="25"/><line class="cls-2" x1="26" y1="1.71" x2="26" y2="25.27"/><line class="cls-2" x1="49.11" y1="18.51" x2="25.32" y2="26.22"/><path class="cls-3" d="M1289.7,1828a2.07,2.07,0,0,0,1.82-.74,1.51,1.51,0,0,0-.3-2.36l-2.19-1.05a1.5,1.5,0,0,0-1.51,2.59c3,1.86,6.71,1.62,9.88,3.18,4.08,2,6,5.1,8.64,8.51,0.9,1.16-.47-1.5-0.61-1.87a20.93,20.93,0,0,0-1-2.27,9.6,9.6,0,0,0-2.63-2.95,20.81,20.81,0,0,0-9.21-4.11c-1.89-.27-2.7,2.62-0.8,2.89a17.39,17.39,0,0,1,8.93,4.18c1.95,1.92,2,5,4.12,6.81,1.48,1.28,4.93,2.19,5.13-.66,0.24-3.61-4.39-8.36-6.91-10.42a22.05,22.05,0,0,0-5.52-3.33c-2.72-1.13-6-1-8.49-2.55l-1.51,2.59,2.19,1.05-0.3-2.36,0.3-.14c-1.93-.08-1.93,2.92,0,3h0Z" transform="translate(-1260.79 -1822.54)"/><path class="cls-3" d="M1286.49,1827.23c-0.07,1.43.58,2.37,0.71,3.81a32,32,0,0,1-.27,4.61l-0.63,10.75a1.52,1.52,0,0,0,1.9,1.45,52.35,52.35,0,0,0,8.31-2.21c2.52-.91,5.6-3.1,8.23-3.19a1.51,1.51,0,0,0,.76-2.8c-3.62-2.29-3.7-6.52-6.91-9.15a29.86,29.86,0,0,0-9.86-5.3,1.51,1.51,0,0,0-1.85,1.85,36,36,0,0,1,.53,16.84,1.52,1.52,0,0,0,2.2,1.69c2.75-1.43,5.84-.11,8.48-2.06,1.53-1.13,2.69-2.45,4.34-3.47,0.88-.55,1.86-0.87,2.36-1.88a2.57,2.57,0,0,0-1.32-3.64c-2.39-.71-4,2.82-5.67,3.79l2.2,1.69a21.28,21.28,0,0,1,1.49-3.58l-2.74-1.16a8.15,8.15,0,0,1-1.52,3.21l2.74,0.36-0.23-2.87c0.24-1.54-1.9-2.8-2.74-1.16l-2.48,4.87,2.8,0.76a17.08,17.08,0,0,1,.82-5.2c0.59-1.88-2.2-2.55-2.89-.8a35.16,35.16,0,0,1-2.49,5l2.8,0.76a28.38,28.38,0,0,1,1.1-6.62l-2.89-.8a26.93,26.93,0,0,1-2.37,6.14l2.8,0.76a34.63,34.63,0,0,1,.77-6,1.5,1.5,0,0,0-2.89-.8l-2.28,6,2.95,0.4a36.88,36.88,0,0,1,.73-7.86,1.5,1.5,0,0,0-2.89-.8,8.52,8.52,0,0,1-1.55,3.1l2.74,1.16c0.33-2.14,1.15-4.37.19-6.4l-2.36,1.82a13.26,13.26,0,0,0,4,3.43,1.51,1.51,0,0,0,2.05-2.05,5.82,5.82,0,0,0-.95-1.61,1.51,1.51,0,0,0-2.8.76c0,1.35,1.41,8.13-.13,8.46s-1.35,2.49,0,2.89l1.4,0.42v-2.89l-2.35.36a1.5,1.5,0,0,0,0,3l3.93,0.17c1.65,0.07,1.82-2,.76-2.8a6.5,6.5,0,0,0-2-1.25c-1.71-.88-3.23,1.7-1.51,2.59a6.5,6.5,0,0,1,2,1.25l0.76-2.8-3.93-.17v3a24.56,24.56,0,0,0,3.14-.47c1.51-.31,1.34-2.49,0-2.89l-1.4-.42v2.89c5.41-1.13,2.37-7.87,2.34-11.35l-2.8.76a5.82,5.82,0,0,1,.95,1.61l2.05-2.05a11.46,11.46,0,0,1-3.37-3c-1.12-1.42-3,.39-2.36,1.82,0.33,0.7-.37,3.32-0.49,4.09a1.51,1.51,0,0,0,2.74,1.16,14.9,14.9,0,0,0,1.85-3.81l-2.89-.8a40.63,40.63,0,0,0-.84,8.66,1.51,1.51,0,0,0,2.95.4l2.28-6-2.89-.8a39.24,39.24,0,0,0-.88,6.78,1.51,1.51,0,0,0,2.8.76,30,30,0,0,0,2.68-6.86,1.5,1.5,0,0,0-2.89-.8,31.72,31.72,0,0,0-1.21,7.42,1.51,1.51,0,0,0,2.8.76,40.22,40.22,0,0,0,2.79-5.74l-2.89-.8a19.45,19.45,0,0,0-.93,6,1.51,1.51,0,0,0,2.8.76l2.48-4.87-2.74-1.16a9.51,9.51,0,0,0,.23,4.46,1.52,1.52,0,0,0,2.74.36,14.38,14.38,0,0,0,1.83-3.93c0.49-1.6-2-2.71-2.74-1.16a39.52,39.52,0,0,0-1.79,4.3,1.52,1.52,0,0,0,2.2,1.69c0.92-.54,2.48-1.35,2.9-2.38q1.4-1.11-.35-0.94a1.58,1.58,0,0,0-1.83.33,7.34,7.34,0,0,0-1.51,1.1c-2,1.63-3.38,2.84-6.11,3a9.21,9.21,0,0,0-4.33,1l2.2,1.69a39.39,39.39,0,0,0-.53-18.44l-1.85,1.85c4.57,1.42,9.06,4,11.07,8.4a11.85,11.85,0,0,0,5,5.74l0.76-2.8c-2.7.09-4.9,1.65-7.36,2.65a50.8,50.8,0,0,1-10,2.86l1.9,1.45,0.63-10.75a42.57,42.57,0,0,0,.27-4.61c-0.07-1.26-.77-2.6-0.71-3.81,0.09-1.93-2.91-1.93-3,0h0Z" transform="translate(-1260.79 -1822.54)"/><path class="cls-3" d="M1296.36,1834.69a1.5,1.5,0,0,0,0-3,1.5,1.5,0,0,0,0,3h0Z" transform="translate(-1260.79 -1822.54)"/></svg>