<svg id="Layer_2" data-name="Layer 2" xmlns="http://www.w3.org/2000/svg" viewBox="0 0 52 52"><defs><style>.cls-1{fill:#fff8e1;}.cls-1,.cls-2{stroke:#00072d;stroke-miterlimit:10;stroke-width:2px;}.cls-2{fill:none;}.cls-3{fill:#00072d;}</style></defs><title>pie_fifty</title><circle class="cls-1" cx="26" cy="26" r="25"/><line class="cls-2" x1="26" y1="1.81" x2="26" y2="26.1"/><line class="cls-2" x1="26" y1="26.1" x2="26" y2="50.4"/><path class="cls-3" d="M1343.33,1765.89c12.45,0.44,19.7,10.85,20.34,22.45,0.11,1.92,3.11,1.93,3,0-0.73-13.38-9.11-25-23.34-25.45-1.93-.07-1.93,2.93,0,3h0Z" transform="translate(-1315.82 -1761.57)"/><path class="cls-3" d="M1363.72,1788.75c0.11,4.47-2.37,12.49-6.65,14.7-1.72.89-.2,3.48,1.51,2.59,2.85-1.48,4.2-4.21,5.49-7,1.51-3.3,2.73-6.59,2.64-10.26,0-1.93-3-1.93-3,0h0Z" transform="translate(-1315.82 -1761.57)"/><path class="cls-3" d="M1342.7,1812.33c5.28,0.35,10.74-3.68,15.32-6l-1.82-2.36c-1.62,1.36-4.78,2.06-6.7,3.31-1.21.79-.23,2.11-2.76,1.78s-1.48-3.15-1.4-4.76q0.61-11.39.84-22.8c0-1.93-3-1.93-3,0q-0.2,9-.61,18c-0.14,3-2,9.56.87,11.77,1.58,1.23,5.19,1.05,6.8,0s1.62-2.09,3.61-3c1.68-.74,3-1,4.47-2.27s-0.37-3.09-1.82-2.36c-3.5,1.77-9.68,5.87-13.8,5.59-1.93-.13-1.92,2.87,0,3h0Z" transform="translate(-1315.82 -1761.57)"/><path class="cls-3" d="M1342.24,1765.85c-0.93,7.82.25,15.52-1.14,23.4-0.33,1.89,2.56,2.7,2.89.8a77.82,77.82,0,0,0,1.25-11.43c0.11-4.27-.51-8.53,0-12.77,0.23-1.91-2.77-1.9-3,0h0Z" transform="translate(-1315.82 -1761.57)"/><path class="cls-3" d="M1345.75,1768.74c12.43,0.19,14.67,14.5,15.88,24,0.24,1.89,3.24,1.91,3,0-0.77-6.05-1.45-13.93-4.84-19.16a18.69,18.69,0,0,0-14-7.85,1.5,1.5,0,0,0,0,3h0Z" transform="translate(-1315.82 -1761.57)"/><path class="cls-3" d="M1361.4,1792.64c-1.91,5.05-4.94,12.14-10.58,13.83-4.15,1.25-3.42-2.07-3.13-4.85,0.22-2.06.43-4.11,0.54-6.19,0.47-8.62-.67-16.93-0.83-25.52,0-1.93-3-1.93-3,0,0.13,7.07,1.22,14,1,21.09-0.11,3.56-.33,7.09-0.72,10.62-0.21,1.9-1,5.35.38,7.12,2,2.61,7.27.67,9.52-.7,5-3,7.74-9.44,9.7-14.61,0.68-1.81-2.22-2.59-2.89-.8h0Z" transform="translate(-1315.82 -1761.57)"/><path class="cls-3" d="M1345.83,1770.08a1.5,1.5,0,0,0,0-3,1.5,1.5,0,0,0,0,3h0Z" transform="translate(-1315.82 -1761.57)"/><path class="cls-3" d="M1345.91,1769.63c4.6,2.77,10.74,5.13,11.7,10.94a98.45,98.45,0,0,1,.87,13.76c0,1.93,3,1.93,3,0-0.13-5.61.4-12.55-1.77-17.86-1.94-4.74-8.19-7-12.28-9.43a1.5,1.5,0,0,0-1.51,2.59h0Z" transform="translate(-1315.82 -1761.57)"/><path class="cls-3" d="M1346.93,1772.77c5.42,3.76,9.66,7.11,10.75,13.9,0.41,2.56.69,5.16,0.94,7.75q0.19,2,.33,3.93c0.06,0.87-.2,2.34.27,2l2.56,1.06a43.64,43.64,0,0,1,.58-9.54c0.33-1.89-2.56-2.7-2.89-.8a47.53,47.53,0,0,0-.69,10.34,1.52,1.52,0,0,0,2.56,1.06c1.63-1.34.58-4.7,0.43-6.43-0.3-3.38-.67-6.76-1.19-10.11-1.19-7.62-6-11.46-12.13-15.7-1.59-1.1-3.09,1.5-1.51,2.59h0Z" transform="translate(-1315.82 -1761.57)"/><path class="cls-3" d="M1358.15,1795.42c0,2.24-2.57,8.61-5.07,9.49-3.83,1.35-3.72-2.09-3.83-4.69a100.52,100.52,0,0,1,.26-12.83c0.29-3.27,2.89-12.47-.63-14.8-1.39-.91-2.59.81-2.05,2.05,1.51,3.46,5.26,5.06,7,8.54,2.09,4.18,4.1,12.22,1.66,16.31-1.21,2-3.33,5.51-4.44,2.31-0.7-2,0-5.12,0-7.22,0-4.93-1.63-12.5,1.07-16.79l-2.74-.36c1.28,3.54,3.91,6.38,5,10a32.46,32.46,0,0,1,1,6.31c0.11,1.25,1.05,6.93.18,7.83-4,4.18-3.16-7.26-3.11-8.58l0.57-14.86c0.07-1.94-2.86-1.91-3,0-0.25,3.4,1,6.32,2,9.5,1.32,4,4.24,10.47,1.54,14.25l2.74,0.36a63.27,63.27,0,0,1-.87-9.26,1.5,1.5,0,0,0-3,0l-0.66,8.26,2.95-.4a41.35,41.35,0,0,1-.88-9.55c0-1.94-2.9-1.92-3,0l0,0.48,2.95-.4-0.35-1.47-1.5,1.5,0.32,0c1.92-.13,1.93-3.13,0-3l-0.32,0a1.53,1.53,0,0,0-1.5,1.5,8.11,8.11,0,0,0,.46,2.26,1.51,1.51,0,0,0,2.95-.4l0-.48h-3a44.82,44.82,0,0,0,1,10.34c0.37,1.75,2.82,1.2,2.95-.4l0.66-8.26h-3a69.19,69.19,0,0,0,1,10.06c0.24,1.4,2.07,1.29,2.74.36,5.23-7.32-3.71-17.64-3.16-25.26h-3l-0.47,12.07c-0.13,3.45-1,7.86-.38,11.28s3.22,4.33,6.53,3.46c4.56-1.2,3-7.67,2.67-11.21a30.58,30.58,0,0,0-1.64-8.63c-1.21-3.05-3.34-5.33-4.47-8.44a1.52,1.52,0,0,0-2.74-.36c-2,3.13-1.71,6.33-1.6,9.92,0.13,4.35,0,8.69.05,13,0,3,.64,10.08,5.19,7.54,2-1.11,4.95-5.11,5.88-7.2,1.1-2.47.48-5.28,0.12-7.88a32.14,32.14,0,0,0-2.71-10c-1.72-3.42-5.55-5.2-7-8.54l-2.05,2.05c0.72,0.47-.22,6.57-0.33,7.63-0.37,3.5-.75,7-0.81,10.49-0.06,3.82-1.15,10.57,1.38,13.92,5.43,7.2,13.55-7,13.55-11.8a1.5,1.5,0,0,0-3,0h0Z" transform="translate(-1315.82 -1761.57)"/></svg>