<svg id="Layer_2" data-name="Layer 2" xmlns="http://www.w3.org/2000/svg" viewBox="0 0 52 52"><defs><style>.cls-1{fill:#fff8e1;stroke:#00072d;stroke-miterlimit:10;stroke-width:2px;}.cls-2{fill:#00072d;}</style></defs><title>pie_eighty</title><circle class="cls-1" cx="26" cy="26" r="25"/><path class="cls-2" d="M1238.49,1743c0.1,4.22.37,8.41,0.81,12.61,0.16,1.53,2.63,2.21,2.95.4a30,30,0,0,0,.56-8.87l-2.95.4a27.9,27.9,0,0,1-2.79,17.13l2.8,0.76c-0.82-9.16,4.07-18.65-2.68-26.48a26.29,26.29,0,0,0-10.12-6.74c-2.58-1.07-6.17-3.25-8.63-1.05a1.51,1.51,0,0,0,.3,2.36c4.8,2.36,9.88,4.79,13.49,8.86,4.39,4.95,5.57,11.65,5.87,18h3l-2-18.65a1.5,1.5,0,0,0-3,0l-1.52,26.3a1.51,1.51,0,0,0,2.56,1.06c2.5-3,1-5.76.21-9.24-1.25-5.74-.53-11.58-2.35-17.24a1.51,1.51,0,0,0-2.95.4l-0.57,17.2,2.95-.4a86.72,86.72,0,0,1-2.25-18.93,1.5,1.5,0,0,0-3,0q-0.15,4.87-.28,9.74l2.95-.4-3.06-13.12c-0.4-1.72-2.85-1.23-2.95.4l-0.51,8.34,2.95-.4c-0.84-2.81-1.76-5.57-2.78-8.32a1.51,1.51,0,0,0-2.95.4l-0.6,6.13,2.95-.4c-0.76-2.35-1.42-4.71-2-7.12-0.32-1.35-2.69-1.51-2.89,0l-0.45,3.28,2.95,0.4a31.82,31.82,0,0,0-.72-5.4l-2.89.8a8.8,8.8,0,0,0,3.74,4.57,1.52,1.52,0,0,0,2.26-1.3,4.52,4.52,0,0,0-.3-3.17l-2.51,1.46-1,4.81,1.85,1a7.6,7.6,0,0,0-1.68-2.75,1.51,1.51,0,0,0-2.56,1.06l0.42,12c0.06,1.64,2.54,2.1,2.95.4a51.93,51.93,0,0,1,2.6-7.94h-2.89a39.33,39.33,0,0,0,2.32,6.9c0.54,1.24,2.42.78,2.74-.36l0.58-2.08h-2.89l1.93,5.5a1.51,1.51,0,0,0,2.95-.4,21.5,21.5,0,0,0-.59-5.68l-2.74,1.16,1.41,3c0.72,1.52,3.3.45,2.74-1.16a40.16,40.16,0,0,0-5.86-11.06c-1.13-1.5-3.65-.15-2.59,1.51,2.3,3.61,7,6.41,8,10.51,1.09,4.45,1.35,9.28,2,13.82,0.27,1.9,3.16,1.09,2.89-.8-0.69-4.82-.72-10.51-2.32-15.13-1.4-4-5.75-6.35-8-9.91l-2.59,1.51a37.5,37.5,0,0,1,5.56,10.34l2.74-1.16-1.41-3c-0.76-1.59-3.11-.44-2.74,1.16a12.72,12.72,0,0,1,.48,4.89l2.95-.4-1.93-5.5a1.51,1.51,0,0,0-2.89,0l-0.58,2.08,2.74-.36a34.23,34.23,0,0,1-2-6.19c-0.37-1.6-2.38-1.24-2.89,0a51.93,51.93,0,0,0-2.6,7.94l2.95,0.4-0.42-12-2.56,1.06,0.91,1.42a1.53,1.53,0,0,0,1.85,1c4.46-1.64,5.73-6.36,2.28-9.83a1.51,1.51,0,0,0-2.51,1.46l0.19,2.37,2.26-1.3-2.36-2.77a1.5,1.5,0,0,0-2.89.8,17.73,17.73,0,0,1,.61,4.6c0.08,1.59,2.71,2.16,2.95.4l0.45-3.28H1220c0.57,2.4,1.24,4.76,2,7.12a1.51,1.51,0,0,0,2.95-.4l0.6-6.13-2.95.4c1,2.75,1.94,5.51,2.78,8.32a1.51,1.51,0,0,0,2.95-.4l0.51-8.34-2.95.4,3.06,13.12c0.39,1.68,2.9,1.26,2.95-.4q0.13-4.87.28-9.74h-3a90.38,90.38,0,0,0,2.35,19.72c0.39,1.69,2.89,1.25,2.95-.4L1235,1743l-2.95.4c1.32,4.12,1.34,8.25,1.71,12.52,0.22,2.51,2.71,9.23,1.2,11l2.56,1.06,1.52-26.3h-3l2,18.65c0.2,1.87,3.09,2,3,0-0.31-6.57-1.46-13.35-5.55-18.71-3.88-5.09-9.68-8-15.29-10.78l0.3,2.36c1.19-1.06,8.14,2.93,9.24,3.57,3.41,2,6.66,4.87,7.81,8.79,1.77,6-1.31,13.43-.74,19.79,0.12,1.35,2.06,2.2,2.8.76a31.4,31.4,0,0,0,3.09-19.44c-0.25-1.65-3.14-1.28-2.95.4a27.42,27.42,0,0,1-.46,8.07l2.95,0.4c-0.43-4.2-.7-8.39-0.81-12.61,0-1.93-3-1.93-3,0h0Z" transform="translate(-1192.5 -1726.75)"/><path class="cls-2" d="M1221.15,1750.19a43.59,43.59,0,0,0,1.11,15.69,1.52,1.52,0,0,0,2.74.36c3.79-7.58,7.14-15.72,12.16-22.58l-2.8-.76a72.47,72.47,0,0,1-.52,15.29c-0.61,4.2-1.63,8.2-1.29,12.47,0.16,1.91,3.16,1.93,3,0-0.37-4.5.84-8.8,1.41-13.23a74.49,74.49,0,0,0,.39-14.53,1.51,1.51,0,0,0-2.8-.76c-5,6.87-8.37,15-12.16,22.58l2.74,0.36a41.23,41.23,0,0,1-1-14.89c0.21-1.92-2.79-1.9-3,0h0Z" transform="translate(-1192.5 -1726.75)"/><path class="cls-2" d="M1236.33,1769l-0.21-.2,0.23,1.82,0.16-.28-1.69.69-4,.26,1.85,1.85a89.09,89.09,0,0,0,2.51-15.35c0.13-1.67-2.62-2.06-2.95-.4a37.6,37.6,0,0,1-6.49,15l2.8,0.76a61.19,61.19,0,0,1,4-18l-2.89-.8c-0.88,3.76-1.93,7.44-3.15,11.1-0.63,1.87,2.18,2.53,2.89.8a16.85,16.85,0,0,1,3.46-5.31l-2.56-1.06a11.61,11.61,0,0,1-1.56,6h2.59c-1.21-2.72-1.23-5.82-1.85-8.7a47.38,47.38,0,0,0-2.52-7.87c-0.6-1.46-3-1.43-2.95.4a68.52,68.52,0,0,1-1,15.18l2.95,0.4c-0.14-2.64.6-7.25-.69-9.69-0.92-1.74-3.44-2-5.14-2.58a1.53,1.53,0,0,0-1.85,1l-1,2.74,2.2-.9a17.14,17.14,0,0,0-7.69-2.47c-1.92-.18-1.91,2.82,0,3a13.86,13.86,0,0,1,6.18,2.06,1.52,1.52,0,0,0,2.2-.9l1-2.74-1.85,1c4.24,1.41,3.44,5.61,3.64,9.38,0.08,1.61,2.58,2.13,2.95.4a72.21,72.21,0,0,0,1.12-16l-2.95.4c2.29,5.6,2.25,11.86,4.68,17.28a1.51,1.51,0,0,0,2.59,0,15.92,15.92,0,0,0,2-7.49,1.52,1.52,0,0,0-2.56-1.06,20.71,20.71,0,0,0-4.23,6.63l2.89,0.8c1.23-3.66,2.27-7.34,3.15-11.1a1.5,1.5,0,0,0-2.89-.8,63.91,63.91,0,0,0-4.07,18.84c-0.1,1.62,2,1.85,2.8.76a39.47,39.47,0,0,0,6.79-15.74l-2.95-.4a84.4,84.4,0,0,1-2.4,14.55,1.52,1.52,0,0,0,1.85,1.85c1.9-.48,8.75-4.34,4-6a1.51,1.51,0,0,0-1.69.69l-0.16.28a1.53,1.53,0,0,0,.23,1.82l0.21,0.2c1.39,1.34,3.52-.78,2.12-2.12h0Z" transform="translate(-1192.5 -1726.75)"/><path class="cls-2" d="M1194.44,1751.25c6.33,1.11,12.29,5.25,18.47,7.21,2.87,0.91,7.58,3.16,9.36-.51a1.5,1.5,0,0,0-2.59-1.51c-2.12,3.41-.78,9.68,3.1,11.57,2.91,1.42,8.43-2,6.6-5.52-1.66-3.21-4.63-.1-5.49,2-0.65,1.56-1.22,4.55-.6,6.18,1.08,2.82,3.91,1.64,5.82,3.88l0.66-2.51a89.28,89.28,0,0,1-11.44,2.95l0.8,2.89a32.63,32.63,0,0,0,6-3.23c1.11-.76.85-2.94-0.76-2.8a65,65,0,0,0-6.79,1l1.16,2.74a36.15,36.15,0,0,1,5.19-2.1,1.5,1.5,0,0,0-.8-2.89l-5.55,1.22,1.16,2.74,5-2.48c1.45-.72.59-2.67-0.76-2.8a34.16,34.16,0,0,0-4.78-.11l0.4,2.95,6.66-2.23a1.51,1.51,0,0,0-.4-2.95,34.36,34.36,0,0,0-6.85.75l0.8,2.89,3.54-1.29a1.51,1.51,0,0,0-.4-2.95l-7.82-.14,0.76,2.8,3.12-1.69c1-.57.95-2.55-0.36-2.74a16.29,16.29,0,0,0-5.28,0l0.8,2.89a43.32,43.32,0,0,0,5.6-1.85,1.51,1.51,0,0,0-.4-2.95c-0.84-.07-3.28.13-3.77-0.28-0.79-.65.33,0,0.25-1s0.31-1.51-.12-2.43c-0.62-1.36-2.77-2.27-3.9-3.08l-7.24-5.26-0.76,2.8c7.1,0.76,17.39,6.21,17.39,14.24l2.56-1.06c-2.65-2.15-3.1-5.89-5.17-8.55-0.77-1-2.15-.25-2.51.66l-1.68,2.8a1.52,1.52,0,0,0,.66,2.51l2.09,0.59c1.35,0.38,2.68-1.55,1.46-2.51-3.22-2.53-6.37-5.48-9.92-7.56-3.85-2.26-8.27-2-12.26-3.8-0.89-.4-2.43,0-2.26,1.3,0.78,5.8,2.13,11.68,6.11,16.19,4.56,5.16,11.49,8.19,17.94,10.16,1.85,0.56,2.64-2.33.8-2.89-5.42-1.65-11.41-4.16-15.51-8.23s-5.59-9.62-6.34-15.22l-2.26,1.3c3.19,1.44,6.59,1.42,9.82,2.61,4.42,1.63,8.11,5.42,11.75,8.28l1.46-2.51-2.09-.59,0.66,2.51a13.82,13.82,0,0,0,2.45-4.13l-2.51.66c2.15,2.75,2.37,6.27,5.17,8.55a1.52,1.52,0,0,0,2.56-1.06c0-10-11.54-16.3-20.39-17.24-1.64-.18-1.81,2-0.76,2.8l4.35,3.16c0.93,0.68,3.75,2.19,4.35,3.16,1,1.6-.1,2.56.31,4.39a1.51,1.51,0,0,0,1,1,29.87,29.87,0,0,0,6.24.75l-0.4-2.95a43.32,43.32,0,0,1-5.6,1.85c-1.91.49-1.07,3.19,0.8,2.89l3.69,0-0.36-2.74-3.12,1.69a1.51,1.51,0,0,0,.76,2.8l7.82,0.14-0.4-2.95-3.54,1.29a1.5,1.5,0,0,0,.8,2.89,30.59,30.59,0,0,1,6-.65l-0.4-2.95-6.66,2.23c-1.53.51-1.37,3,.4,2.95a34.16,34.16,0,0,1,4.78.11l-0.76-2.8-5,2.48c-1.58.79-.44,3.09,1.16,2.74l5.55-1.22-0.8-2.89a41,41,0,0,0-5.91,2.4c-1.6.8-.43,3.06,1.16,2.74a57.54,57.54,0,0,1,6-.88l-0.76-2.8a28.18,28.18,0,0,1-5.28,2.93,1.5,1.5,0,0,0,.8,2.89,89.28,89.28,0,0,0,11.44-2.95,1.52,1.52,0,0,0,.66-2.51c-1.15-1.34-3-1.44-4-2.43-1.7-1.72.27-.35-0.86-3.27-1.23-3.16-7.21-3.73-4.08-8.74l-2.59-1.51c-1.43,3-20.94-7.46-24.45-8.07-1.89-.33-2.7,2.56-0.8,2.89h0Z" transform="translate(-1192.5 -1726.75)"/><path class="cls-2" d="M1216.12,1771.32c-2.69,2.15-2.87,6.82,1.5,6.09a1.51,1.51,0,0,0,.66-2.51c-1.47-1.37-2.18-3.23-3.59-4.63s-3.56-2.18-5.29-3.31c-4.6-3-7.65-7.78-10.58-12.29l-2.05,2.05c5.49,4.17,9.62,9.62,13.68,15.13l2.36-1.82a157.39,157.39,0,0,1-12.59-18.32l-2.36,1.82a177.51,177.51,0,0,1,14,14.31c1.1,1.26,3.37-.44,2.36-1.82a74.2,74.2,0,0,1-6.84-11.27l-2.36,1.82a26.29,26.29,0,0,1,7,8.74c1,2,3.46,3.35,4.16,5.3l1.45-1.9c-2.48.27-4-2.93-5.61-4.22a16.11,16.11,0,0,0-3.41-2,47.07,47.07,0,0,1-9.12-5.43c-1.3-1-2.64.86-2.05,2.05,1.89,3.86,3.18,7.71,6.18,10.92a24.16,24.16,0,0,0,9.56,6.11c1.46,0.53,2.46-1.5,1.46-2.51a43.67,43.67,0,0,0-9.51-7.25,1.5,1.5,0,0,0-1.51,2.59,40.72,40.72,0,0,1,8.9,6.78l1.46-2.51c-7.93-2.89-10.5-8.62-13.95-15.66l-2.05,2.05c3.75,2.88,8.38,4.28,12,7.12,2.64,2.06,3.79,5.32,7.64,4.9a1.52,1.52,0,0,0,1.45-1.9c-1-2.74-3.54-4.18-4.8-6.89-1.61-3.47-4.25-6-7.1-8.48a1.51,1.51,0,0,0-2.36,1.82,74.2,74.2,0,0,0,6.84,11.27l2.36-1.82a177.51,177.51,0,0,0-14-14.31,1.51,1.51,0,0,0-2.36,1.82,162.78,162.78,0,0,0,13.06,18.93c1.05,1.32,3.37-.44,2.36-1.82-4.38-5.95-8.83-11.7-14.75-16.21-1.21-.92-2.83.85-2.05,2.05,2.64,4.08,5.36,8.27,9.09,11.45a38,38,0,0,0,5.1,3.34c2.64,1.61,3.57,4,5.73,6l0.66-2.51a15.51,15.51,0,0,0,1.42-1.08c1.51-1.2-.63-3.31-2.12-2.12h0Z" transform="translate(-1192.5 -1726.75)"/></svg>