<svg id="Layer_2" data-name="Layer 2" xmlns="http://www.w3.org/2000/svg" viewBox="0 0 52 52"><defs><style>.cls-1{fill:#fff8e1;}.cls-1,.cls-2{stroke:#00072d;stroke-miterlimit:10;stroke-width:2px;}.cls-2{fill:none;}.cls-3{fill:#00072d;}</style></defs><title>pie_thirty</title><circle class="cls-1" cx="26" cy="26" r="25"/><line class="cls-2" x1="26" y1="1.81" x2="26" y2="26.73"/><line class="cls-2" x1="49.1" y1="33.53" x2="25.52" y2="25.84"/><path class="cls-3" d="M1358.47,1842.13c0.33,0.09,2.1.41,2.12,0.81q-1.82-1.84-.56-0.17l1,1.56a33,33,0,0,1,3.15,5.71c1.35,3.53,4.71,6,8.61,4.89,3.37-.93,6.25-5.06,4.89-8.61a54.19,54.19,0,0,0-5.58-10.61,15.72,15.72,0,0,0-9.92-7.08,7,7,0,1,0-3.72,13.5h0Z" transform="translate(-1327.62 -1826.4)"/><path class="cls-3" d="M1370.78,1844.35q2.52,0.2.68-.18l-0.75-.26a3.53,3.53,0,1,1-.55-0.22q-1-.45-2.05-0.85c-0.77-.29-1.54-0.55-2.32-0.79-0.26-.08-2.73-0.75-1.64-0.26l3.22,4.18q0.15,0.87.07-.67,0-.94.1-1.88c0.25-3.78-3.39-7-7-7-4,0-6.75,3.21-7,7-0.17,2.65-.36,5.55,1,7.94,1.59,2.72,4.34,3.28,7.1,4.07,2.23,0.63,3,1.17,5.32,2a14.64,14.64,0,0,0,7.52.44c3.73-.63,5.82-5.23,4.89-8.61-1.09-4-4.87-5.52-8.61-4.89h0Z" transform="translate(-1327.62 -1826.4)"/><path class="cls-3" d="M1358.94,1827.4a4.11,4.11,0,0,0-2.28,0c-0.23.06-.45,0.17-0.68,0.22l0.93-.13a0.81,0.81,0,0,1-.26,0l0.93,0.13-0.12,0,0.84,0.35-0.1-.06,0.71,0.55-0.07-.09a3.49,3.49,0,0,0-2.47-1,3.56,3.56,0,0,0-2.47,1,3.52,3.52,0,0,0-1,2.47l0.13,0.93a3.5,3.5,0,0,0,.9,1.54,3.8,3.8,0,0,0,3,1.22,11.13,11.13,0,0,0,1.82-.38l-0.93.13h0.14l-0.93-.13,0.13,0a3.5,3.5,0,0,0,4.31-2.44,3.59,3.59,0,0,0-2.44-4.31h0Z" transform="translate(-1327.62 -1826.4)"/><path class="cls-3" d="M1356,1847.06l-0.36.27,5.14,4c1.29-4.79,2.89-9,1-13.91-0.83-2.18-4-3.81-5.85-1.54a2.72,2.72,0,0,1-1.14,1c-4,2.11-.45,8.16,3.53,6a8.09,8.09,0,0,0,2.56-2.08l-5.85-1.54a6.85,6.85,0,0,1,.39,4.89c-0.47,1.77-.95,3.53-1.42,5.3-0.72,2.69,2.59,5.88,5.14,4l0.36-.27a3.62,3.62,0,0,0,1.26-4.79c-0.85-1.49-3.28-2.39-4.79-1.26h0Z" transform="translate(-1327.62 -1826.4)"/><path class="cls-3" d="M1374.17,1859.74h0.14l-0.93-.13a1.14,1.14,0,0,1,.26.08l-0.84-.35a1.17,1.17,0,0,1,.24.13l-0.71-.55a1.14,1.14,0,0,1,.2.18l-0.55-.71,0.08,0.11a3.81,3.81,0,0,0,2.09,1.61,3.58,3.58,0,0,0,2.7-.35,3.53,3.53,0,0,0,1.61-2.09,3.41,3.41,0,0,0-.35-2.7,5.76,5.76,0,0,0-1.65-1.62,4.9,4.9,0,0,0-2.28-.63,3.51,3.51,0,0,0-2.47,1,3.5,3.5,0,0,0,0,4.95,4,4,0,0,0,2.47,1h0Z" transform="translate(-1327.62 -1826.4)"/></svg>