<svg id="Layer_2" data-name="Layer 2" xmlns="http://www.w3.org/2000/svg" viewBox="0 0 52 52"><defs><style>.cls-1{fill:#fff8e1;}.cls-1,.cls-2{stroke:#00072d;stroke-miterlimit:10;stroke-width:2px;}.cls-2{fill:none;}.cls-3{fill:#00072d;}</style></defs><title>pie_ninety</title><circle class="cls-1" cx="26" cy="26" r="25"/><line class="cls-2" x1="26" y1="1.81" x2="26" y2="26.43"/><line class="cls-2" x1="11.72" y1="6.45" x2="26.12" y2="26.26"/><path class="cls-3" d="M1276.56,1703.25c2.95,1,6.19,1.52,9,2.79,3.26,1.46,5.91,4.41,8.05,7.2,1.16,1.51,3.77,0,2.59-1.51a30.17,30.17,0,0,0-7.9-7.65c-3.25-2-7.4-2.52-11-3.72-1.83-.61-2.62,2.28-0.8,2.89h0Z" transform="translate(-1249.18 -1699.2)"/><path class="cls-3" d="M1293.63,1713.58c3.06,6.89,4.1,13.37,1.5,20.61-0.65,1.82,2.24,2.6,2.89.8,2.88-8,1.57-15.31-1.8-22.92-0.78-1.76-3.37-.24-2.59,1.51h0Z" transform="translate(-1249.18 -1699.2)"/><path class="cls-3" d="M1275.54,1704.76a83.66,83.66,0,0,1,12.4,5.82c5.66,3.24,4.81,8.38,5.14,14,0.11,1.92,3.11,1.93,3,0-0.33-5.62.53-11.13-4.34-15.06a29.29,29.29,0,0,0-6.86-3.63c-2.89-1.27-5.57-3-8.54-4-1.82-.65-2.6,2.25-0.8,2.89h0Z" transform="translate(-1249.18 -1699.2)"/><path class="cls-3" d="M1281,1706.48a7.58,7.58,0,0,1,4.91,1.49c1.57,1.13,3.07-1.47,1.51-2.59a10.26,10.26,0,0,0-6.42-1.9c-1.92.08-1.93,3.08,0,3h0Z" transform="translate(-1249.18 -1699.2)"/><path class="cls-3" d="M1295.88,1722.38a1.5,1.5,0,0,0,0-3,1.5,1.5,0,0,0,0,3h0Z" transform="translate(-1249.18 -1699.2)"/><path class="cls-3" d="M1294.71,1720.65c-0.49,2.9-4.42,18.67,2,17a1.52,1.52,0,0,0,.9-2.2c-3.71-7.84,1.32-23.61-10-26.56a1.5,1.5,0,0,0-.8,2.89c9,2.34,5,18.47,8.2,25.19l0.9-2.2c0.68-.17,1.6-12.82,1.68-13.34,0.32-1.89-2.57-2.7-2.89-.8h0Z" transform="translate(-1249.18 -1699.2)"/><path class="cls-3" d="M1275.06,1705.38l0,14.48c0,2.17-.13,9.88,3.15,6.07,4-4.67,3-14.25,2.12-19.71l-1.85,1.85c4.79,1.85,9.43,4.69,11.4,9.63,1.49,3.74,1.62,7.9,2.41,11.82,0.38,1.89,3.27,1.09,2.89-.8-1.06-5.3-1.07-11.11-4.37-15.64-2.8-3.85-7.18-6.23-11.53-7.91-1.19-.46-2,0.85-1.85,1.85a38.24,38.24,0,0,1,.29,10.11c-0.14,1.21-.54,5.2-1.52,6.43-0.46.58-1.5,0.77-1.91,1.32-0.87,1.16-1,3,.77,3.52,2.07,0.58,2.83-1.59,3-3.12,0.72-6.44,0-13.43,0-19.91a1.5,1.5,0,0,0-3,0h0Z" transform="translate(-1249.18 -1699.2)"/><path class="cls-3" d="M1280.08,1711.07c8,4.66,9.84,13.74,10.43,22.32,0.13,1.92,3.13,1.93,3,0-0.66-9.66-3-19.69-11.91-24.91a1.5,1.5,0,0,0-1.51,2.59h0Z" transform="translate(-1249.18 -1699.2)"/><path class="cls-3" d="M1279.78,1713.46a33.79,33.79,0,0,1,8.52,22.29,1.5,1.5,0,0,0,3,0,37.08,37.08,0,0,0-9.4-24.41c-1.28-1.45-3.39.68-2.12,2.12h0Z" transform="translate(-1249.18 -1699.2)"/><path class="cls-3" d="M1285.46,1711.13a39.94,39.94,0,0,0,1.87,10.26c0.59,1.83,3.49,1,2.89-.8a36.79,36.79,0,0,1-1.76-9.47c-0.1-1.92-3.1-1.93-3,0h0Z" transform="translate(-1249.18 -1699.2)"/><path class="cls-3" d="M1288,1714v3.5a1.5,1.5,0,0,0,3,0V1714a1.5,1.5,0,0,0-3,0h0Z" transform="translate(-1249.18 -1699.2)"/><path class="cls-3" d="M1283.6,1715a14.59,14.59,0,0,0,1.24,4.63,1.51,1.51,0,0,0,2.05.54,1.54,1.54,0,0,0,.54-2.05,10.1,10.1,0,0,1-.83-3.11,1.54,1.54,0,0,0-1.5-1.5,1.51,1.51,0,0,0-1.5,1.5h0Z" transform="translate(-1249.18 -1699.2)"/><path class="cls-3" d="M1279.69,1714.75c0.79,6.66,3.93,13.27,6.12,19.56,0.54,1.54,3,1.37,2.95-.4a30,30,0,0,0-4.48-15.59,1.52,1.52,0,0,0-2.59,0,71.23,71.23,0,0,0-5.13,8.65c-0.72,1.43,1.21,3.21,2.36,1.82l3.6-4.39-2.56-1.06a45.73,45.73,0,0,0,3.73,13.16l2.05-2.05c-1.9-1.42-9-5.32-9.48-7.7l-1.85,1.85a38.27,38.27,0,0,1,6.35,3,1.51,1.51,0,0,0,1.82-2.36l-2.6-2.69-1.46,2.51a17,17,0,0,1,6.94,2.69l0.36-2.74-2.36.88c-1.79.67-1,3.57,0.8,2.89l2.36-.88a1.52,1.52,0,0,0,.36-2.74,18.58,18.58,0,0,0-7.65-3,1.51,1.51,0,0,0-1.46,2.51l2.6,2.69,1.82-2.36a42.4,42.4,0,0,0-7.06-3.28,1.52,1.52,0,0,0-1.85,1.85c0.36,1.82,1.52,2.49,3,3.58l7.89,5.92c1.34,1,2.59-.86,2.05-2.05a40.64,40.64,0,0,1-3.32-11.65c-0.15-1.12-1.63-2.19-2.56-1.06l-3.6,4.39,2.36,1.82a71.23,71.23,0,0,1,5.13-8.65h-2.59a27,27,0,0,1,4.07,14.08l2.95-.4c-2.09-6-5.26-12.43-6-18.77-0.22-1.89-3.23-1.92-3,0h0Z" transform="translate(-1249.18 -1699.2)"/><path class="cls-3" d="M1294,1735.91a119.14,119.14,0,0,1-11.46,10.55l2.36,1.82a78.73,78.73,0,0,1,10.54-13.37l-2.51-1.46a56.4,56.4,0,0,1-4,9.52l2.59,1.51a18.76,18.76,0,0,0,1.61-3.46c0.5-2.4-.2-5.34-0.37-7.77a1.51,1.51,0,0,0-2.95-.4,26.27,26.27,0,0,1-4.62,7.92l2.56,1.06a41,41,0,0,1,1.32-6.31c0.46-1.6-2-2.69-2.74-1.16a43.79,43.79,0,0,0-2.11,4.8l2.95,0.4-0.41-3.81a1.51,1.51,0,0,0-2.95-.4,24.33,24.33,0,0,1-2.46,5.23H1284a12.72,12.72,0,0,1-.9-8.61l-2.95-.4,0.15,4.36,2.26-1.3c-3.29-2.42-7-4.14-8.73-8.09l-2.36,1.82,7.91,7.16c4,3.59,3.21,7.86,1.59,12.4l2.2-.9v-4.71l-2.51-.66a5.81,5.81,0,0,1,.54,2.12l2.89-.8a50.52,50.52,0,0,0-3.42-8.26c-0.76-1.45-2.64-.58-2.8.76a21.5,21.5,0,0,0,1.75,11.34,1.51,1.51,0,0,0,2.59,0c1.93-3.48-.34-6.66-2.08-9.75-1.24-2.2-2.92-4.27-4-6.52-1.21-2.42-.69-4.6-2.66-6.51a1.5,1.5,0,0,0-2.12,2.12c0.53,0.51.66,2.71,0.88,3.33a18.24,18.24,0,0,0,2.13,3.77c1.58,2.47,6.93,9.12,5.31,12h2.59a18.7,18.7,0,0,1-1.34-9.83l-2.8.76a46.19,46.19,0,0,1,3.12,7.54,1.5,1.5,0,0,0,2.89-.8,5.81,5.81,0,0,0-.54-2.12,1.52,1.52,0,0,0-2.51-.66c-3.38,2.77-2.87,7,.6,9.42a1.52,1.52,0,0,0,2.2-.9c1.19-3.35,2.76-8.78.8-12.13-2.31-3.94-7.69-7.29-11.07-10.35a1.51,1.51,0,0,0-2.36,1.82c1.89,4.44,6.1,6.43,9.8,9.16a1.51,1.51,0,0,0,2.26-1.3l-0.15-4.36c-0.06-1.63-2.57-2.11-2.95-.4a16.31,16.31,0,0,0,1.2,10.92,1.51,1.51,0,0,0,2.59,0,29,29,0,0,0,2.76-5.94l-2.95-.4,0.41,3.81a1.51,1.51,0,0,0,2.95.4,24.69,24.69,0,0,1,1.81-4.09l-2.74-1.16a47,47,0,0,0-1.43,7.11,1.51,1.51,0,0,0,2.56,1.06,30.88,30.88,0,0,0,5.39-9.24l-2.95-.4c0.27,3.73.65,6.29-.83,9.71-0.75,1.72,1.66,3.26,2.59,1.51a60.63,60.63,0,0,0,4.29-10.23,1.51,1.51,0,0,0-2.51-1.46c-4.05,4.39-8,8.8-11,14-0.91,1.56,1.09,2.84,2.36,1.82a119.14,119.14,0,0,0,11.46-10.55c1.33-1.4-.79-3.52-2.12-2.12h0Z" transform="translate(-1249.18 -1699.2)"/><path class="cls-3" d="M1258.3,1708.25c4,8.88,11.23,15.65,15.8,24.2,0.91,1.7,3.5.19,2.59-1.51-4.56-8.55-11.8-15.32-15.8-24.2-0.79-1.76-3.38-.23-2.59,1.51h0Z" transform="translate(-1249.18 -1699.2)"/><path class="cls-3" d="M1260.22,1709.53a10.94,10.94,0,0,0,3.93,7.1,23.4,23.4,0,0,1,6.18,7.69l2.59-1.51c-1.5-2.41-3-4.82-4.49-7.22-1.13-1.81-2.15-3.48-4.08-4.5-1.71-.9-3.23,1.69-1.51,2.59,2,1,3,3.39,4.13,5.23l3.37,5.42a1.5,1.5,0,0,0,2.59-1.51,30.76,30.76,0,0,0-4.33-6.34c-1-1.05-2.22-1.72-3.23-2.71a8.77,8.77,0,0,1-2.24-5c-0.33-1.9-3.22-1.09-2.89.8h0Z" transform="translate(-1249.18 -1699.2)"/><path class="cls-3" d="M1256.61,1709.82c3.81,6.18,6.38,13.19,12,18a1.5,1.5,0,0,0,2.12-2.12l-3.67-4.47-0.66,2.51c0.3-.09,8.41,13.48,9.19,14.75,1,1.64,3.6.14,2.59-1.51-2.7-4.39-5.5-8.72-8.43-13-1-1.48-2-3.8-4.15-3.17a1.52,1.52,0,0,0-.66,2.51l3.67,4.47,2.12-2.12c-5.43-4.63-7.89-11.45-11.55-17.39-1-1.64-3.61-.14-2.59,1.51h0Z" transform="translate(-1249.18 -1699.2)"/><path class="cls-3" d="M1275.59,1738.66a49.36,49.36,0,0,0,2.92,10.09l2.2-1.69a9,9,0,0,0-7.4-1,1.51,1.51,0,0,0,0,2.89,23.62,23.62,0,0,0,4,1.13v-2.89c-0.12,0-3.53-.74-3.58-0.75-2.54-.14-4.43.18-6.93-1-4.28-2.05-6.8-5.08-9.36-9-1.05-1.61-3.65-.11-2.59,1.51,3.21,4.91,6.18,8.41,11.88,10.71,2.72,1.1,4.28.46,7,.79,1.66,0.2,2.71,1.08,4.38.64,1.37-.36,1.49-2.61,0-2.89a23.62,23.62,0,0,1-4-1.13v2.89a5.28,5.28,0,0,1,5.09.72c1,0.62,2.69-.43,2.2-1.69a49.35,49.35,0,0,1-2.92-10.09c-0.29-1.9-3.18-1.09-2.89.8h0Z" transform="translate(-1249.18 -1699.2)"/><path class="cls-3" d="M1255.26,1710.34a34.08,34.08,0,0,0,0,30.55c0.63,1.28,3,.73,2.8-0.76-0.48-3.79-3-6.38-4-10a25.94,25.94,0,0,1-.78-7.45c0-4.13,1.29-7,4.8-9.23l-2.2-.9c0.53,2.37,1.69,3.72,3.4,5.41a57.23,57.23,0,0,1,6.69,7.84c4.65,6.56,9.16,13.27,9.49,21.57l2.8-.76c-3.34-6.18-5-12.85-8.91-18.82a64.25,64.25,0,0,0-12.49-14c-1-.87-3.07-0.08-2.51,1.46,1.94,5.29,7,8.69,10.06,13.37,3.68,5.7,6,12.17,8.31,18.51l2.74-1.16a144.14,144.14,0,0,1-9.43-15.7,40.24,40.24,0,0,0-3.78-6.07c-1.87-2.39-4.62-4-6.44-6.34-0.84-1.09-2.81-.87-2.8.76,0.05,4.83,4,6.89,6.9,10.19,4.53,5.1,7.23,11.58,9.84,17.79l2.74-1.16c-5.31-7.91-8.8-19.33-18.46-22.85-1.32-.48-2.24,1.13-1.69,2.2,1.85,3.65,5.3,5.46,8,8.4,3.64,4,5.8,8.91,7.58,13.94l2.51-1.46c-2.7-2.43-4.5-5.74-6.87-8.49-2.65-3.07-6.36-5.46-8.38-9l-2.36,1.82c3.69,4.72,9.13,7.3,13.45,11.34,1.18,1.1,3.43-.4,2.36-1.82-2-2.62-10.52-15-14.77-11.86-5.3,3.88,8.05,16,10.1,18a1.5,1.5,0,0,0,2.12-2.12c-1.39-1.37-11.5-10.81-9.93-12.61,1-1.09,9.29,9.32,9.89,10.12l2.36-1.82c-4.31-4-9.78-6.64-13.45-11.34-1.07-1.37-3.18.38-2.36,1.82,1.93,3.37,5.17,5.56,7.77,8.39,2.84,3.09,4.83,6.9,8,9.7,1,0.93,3,0,2.51-1.46a48.11,48.11,0,0,0-6.1-12.52c-2.81-3.86-7.63-6.31-9.78-10.54l-1.69,2.2c8.35,3,12,14.57,16.67,21.47,0.88,1.31,3.44.5,2.74-1.16a96,96,0,0,0-6.55-13.61,41.12,41.12,0,0,0-3.54-4.89c-2.06-2.43-6.51-5.19-6.54-8.68l-2.8.76c1.4,1.83,3.12,2.92,4.75,4.52a30.77,30.77,0,0,1,5.46,7.89,144.19,144.19,0,0,0,9.43,15.7c0.91,1.29,3.36.56,2.74-1.16a114.6,114.6,0,0,0-7-16.51,46.39,46.39,0,0,0-4.6-6.86c-2.28-2.79-5.5-5-6.77-8.51l-2.51,1.46a61.45,61.45,0,0,1,12.88,14.77c3.41,5.55,5,11.8,8,17.47a1.51,1.51,0,0,0,2.8-.76c-0.28-7-3.09-13-6.88-18.72-1.82-2.75-3.71-5.51-5.76-8.1-2.17-2.75-6.27-5.3-7.06-8.8a1.51,1.51,0,0,0-2.2-.9c-5,3.11-6.24,6-6.28,11.82a28,28,0,0,0,.88,8.24c0.95,3.18,3.51,5.87,3.93,9.19l2.8-.76a30.81,30.81,0,0,1,0-27.53c0.85-1.73-1.74-3.25-2.59-1.51h0Z" transform="translate(-1249.18 -1699.2)"/></svg>