<svg id="Layer_2" data-name="Layer 2" xmlns="http://www.w3.org/2000/svg" viewBox="0 0 52 52"><defs><style>.cls-1{fill:#fff8e1;}.cls-1,.cls-2{stroke:#00072d;stroke-miterlimit:10;stroke-width:2px;}.cls-2{fill:none;}.cls-3{fill:#00072d;}</style></defs><title>pie_ten</title><circle class="cls-1" cx="26" cy="26" r="25"/><line class="cls-2" x1="40.31" y1="5.66" x2="26" y2="25.29"/><path class="cls-3" d="M1224.24,1865.27l0.5-.2a1.53,1.53,0,0,0,.66-2.51l-0.81-1-1.82,2.36a7.52,7.52,0,0,0,4.53,1.27c1.62,0,2.12-2.62.4-2.95l-1-.29-1.16,2.74c1.69,0.58,5.37,1.11,6.73,2.32l-0.39-1.46c-1,2.57-3.51,5.31-5,7.61a62.32,62.32,0,0,1-5.58,7.33l2.51,1.46c0.45-2.52,1.4-4.26,1.44-6.9,0-3.24-.07-6.49-0.1-9.73l-1.5,1.5a21.25,21.25,0,0,0,3.74.45c1.52-.1,1.66-0.81.68,0.94a74,74,0,0,1-4.19,6.12l2.8,0.76c0-.54.51-7.35-0.28-7.15l1.69,0.69-0.29-.39c-1.14-1.53-3.75,0-2.59,1.51l0.29,0.39a1.57,1.57,0,0,0,1.69.69c2-.51,2.09-2.38,1.31-4.05a1.45,1.45,0,0,0-1.3-.74c-3.79.33-3.79,6.24-3.53,9a1.51,1.51,0,0,0,2.8.76c1.49-2.13,6.17-6.76,5.42-9.59s-6.23-2.19-8.25-2.43a1.51,1.51,0,0,0-1.5,1.5c0,2.78.07,5.56,0.09,8.34s-0.86,4.94-1.32,7.5c-0.24,1.35,1.41,2.67,2.51,1.46a67.59,67.59,0,0,0,6-7.94c1.74-2.61,4.2-5.41,5.35-8.32a1.46,1.46,0,0,0-.39-1.46c-2-1.74-5.61-2.25-8.06-3.09-1.59-.55-2.71,2-1.16,2.74a6.27,6.27,0,0,0,1.73.59l0.4-2.95a3.78,3.78,0,0,1-3-.86c-1.54-1-2.81,1.12-1.82,2.36l0.81,1,0.66-2.51-0.5.2c-1.77.71-1,3.62,0.8,2.89h0Z" transform="translate(-1195.58 -1859.69)"/><line class="cls-2" x1="26" y1="1" x2="26" y2="25.77"/></svg>