<svg id="Layer_2" data-name="Layer 2" xmlns="http://www.w3.org/2000/svg" viewBox="0 0 52 52"><defs><style>.cls-1{fill:#fff8e1;}.cls-1,.cls-2{stroke:#00072d;stroke-miterlimit:10;stroke-width:2px;}.cls-2{fill:none;}.cls-3{fill:#00072d;}</style></defs><title>pie_seventy</title><circle class="cls-1" cx="26" cy="26" r="25"/><line class="cls-2" x1="26" y1="1.81" x2="26" y2="26.58"/><line class="cls-2" x1="2.9" y1="33.47" x2="26.76" y2="25.72"/><path class="cls-3" d="M1218.79,1801.39c0.72-.16,2.09.84,2.83,1,1.21,0.29,2.45.37,3.65,0.69a3.6,3.6,0,0,1,1.81.76,10.38,10.38,0,0,0,1,.85c0.21,0.13,1,.67.42,0.15l-0.66-1.59,0,0.37c0.2,2.87,4.7,2.9,4.5,0-0.12-1.68-.85-1.94-2-2.82a7.77,7.77,0,0,0-3.14-1.84c-1.82-.53-3.77-0.63-5.53-1.3a6.43,6.43,0,0,0-4.12-.63c-2.82.64-1.63,5,1.2,4.34h0Z" transform="translate(-1190.33 -1795.4)"/><path class="cls-3" d="M1228.58,1805.79a7.36,7.36,0,0,0,1.81,2.18,2.29,2.29,0,0,0,3.76-1,3.65,3.65,0,0,0,.1-2.23l-4.11,1.73c0.95,1.81,2.46,3,3.38,4.82,1.4,2.74,3,5,3.31,8.19,0.28,2.85,4.79,2.88,4.5,0a20.39,20.39,0,0,0-2.87-8.6c-0.7-1.18-1.15-2.57-2-3.67s-1.81-1.74-2.48-3c-1.25-2.4-4.54-.64-4.11,1.73l-0.1-.16,3.76-1a2.81,2.81,0,0,1-1.11-1.27c-1.43-2.52-5.32-.25-3.89,2.27h0Z" transform="translate(-1190.33 -1795.4)"/><path class="cls-3" d="M1236.89,1819.84a23.38,23.38,0,0,1-1.13,9c-0.54,1.59-2.61,7.08-4.54,7.39-2.85.45-1.64,4.79,1.2,4.34,3.37-.54,5.66-5.64,6.85-8.39a27.09,27.09,0,0,0,2.12-12.31c-0.16-2.88-4.66-2.9-4.5,0h0Z" transform="translate(-1190.33 -1795.4)"/><path class="cls-3" d="M1234.28,1835.22c2.05-7.78,4.45-15.29.74-23-3-6.3-9.15-10.34-15.79-12a2.27,2.27,0,0,0-2.77,2.77c1.05,3.17.21,6.22,0.09,9.45a64.9,64.9,0,0,0,.52,8.9,2.26,2.26,0,0,0,4.42.6q2.55-7.25,4.93-14.56c0.7-2.16-2.23-3.76-3.76-2.19l0.29,0.39-2.19,3.76c10,2.23,10.48,18.29,7.29,25.64l4.11,0.54c-1.35-4-.47-8.47-1.34-12.63a31.72,31.72,0,0,0-4.37-10.44,2.28,2.28,0,0,0-4.11.54c-1.67,6-2.63,11.51-.34,17.48,1.59,4.14,2.28,9.38,6.76,11.39a2.28,2.28,0,0,0,3.31-2.54q-2.48-9.27-5.4-18.41c-0.88-2.75-5.22-1.57-4.34,1.2q2.92,9.14,5.4,18.41l3.31-2.54c-2.87-1.29-4.26-7-5.22-10-1.5-4.69-.43-9.14.86-13.77l-4.11.54a27.23,27.23,0,0,1,4.24,11.53c0.41,3.57-.15,7,1,10.46,0.55,1.63,3.28,2.45,4.11.54,4.3-9.91,3.22-29.31-10-32.25a2.27,2.27,0,0,0-2.19,3.76c1.83,2.19,4.28,1.45,6.07-.39l-3.76-2.19q-2.38,7.31-4.93,14.56l4.42,0.6a61,61,0,0,1-.41-10.67c0.23-3.14.64-5.84-.37-8.87l-2.77,2.77c5.72,1.42,10.87,4.77,13.25,10.35,2.73,6.39.32,12.81-1.34,19.12-0.74,2.8,3.6,4,4.34,1.2h0Z" transform="translate(-1190.33 -1795.4)"/><path class="cls-3" d="M1195.42,1833q12.68-3.19,25.19-7c2-.6,2.29-3.9,0-4.34a11.28,11.28,0,0,0-9.28,1.91c-1.65,1.19-1.3,4.33,1.14,4.19a5.9,5.9,0,0,1,5.84,3,2.27,2.27,0,0,0,3.89,0,5.47,5.47,0,0,0,1.06-3.72c0-3-4.2-2.82-4.5,0-0.69,6.44,4.13,10.25,7.25,15.26l1.34-3.31-3.56.74,2.77,1.57c-1-2.65-2.67-4.15-4.59-6.18-2.15-2.27-3.28-5.56-5.75-7.5-5.32-4.17-14.49,1.58-19.64,3.47a2.29,2.29,0,0,0-.54,4.11c2,1.57,3,4.35,5.09,6a19.24,19.24,0,0,0,5.9,3c5.12,1.77,10.73,3,16.1,1.91a2.27,2.27,0,0,0,1-3.76c-2.94-3.12-9-7.52-10.19-11.72a2.22,2.22,0,0,0-1.57-1.57l-0.92-.16c-2.83-.48-4.05,3.86-1.2,4.34l0.92,0.16-1.57-1.57c1.53,5.38,7.63,9.77,11.34,13.71l1-3.76c-4.75,1-10.93-.57-15.34-2.58-3.83-1.75-5.1-5.49-8.28-7.93l-0.54,4.11c4.6-1.69,13.05-6.78,17.09-2.39,1,1.08,1.54,2.64,2.52,3.79,1.6,1.88,3.89,3.27,4.83,5.67a2.32,2.32,0,0,0,2.77,1.57l3.56-.74a2.27,2.27,0,0,0,1.34-3.31c-2.59-4.15-7.21-7.65-6.64-13h-4.5l-0.44,1.45h3.89a10.14,10.14,0,0,0-9.72-5.26l1.14,4.19a6.73,6.73,0,0,1,5.81-1.45v-4.34q-12.52,3.78-25.19,7c-2.81.71-1.62,5,1.2,4.34h0Z" transform="translate(-1190.33 -1795.4)"/><path class="cls-3" d="M1234.08,1822.17v2.33a2.25,2.25,0,0,0,4.5,0v-2.33a2.25,2.25,0,0,0-4.5,0h0Z" transform="translate(-1190.33 -1795.4)"/></svg>