<svg id="Layer_2" data-name="Layer 2" xmlns="http://www.w3.org/2000/svg" xmlns:xlink="http://www.w3.org/1999/xlink" viewBox="0 0 400 204.49"><defs><style>.cls-1{font-size:12.39px;}.cls-1,.cls-3,.cls-5,.cls-6{fill:#00072d;}.cls-1,.cls-10,.cls-6{font-family:Roboto;}.cls-2,.cls-4{fill:#fff8e1;}.cls-2,.cls-3,.cls-4,.cls-5{stroke:#00072d;}.cls-2,.cls-3,.cls-4,.cls-5,.cls-8,.cls-9{stroke-miterlimit:10;}.cls-2{stroke-width:3.09px;}.cls-3{stroke-width:2.08px;}.cls-4{stroke-width:3.14px;}.cls-5{stroke-width:1.05px;}.cls-6{font-size:12.55px;}.cls-7{opacity:0.5;}.cls-8,.cls-9{fill:none;stroke-width:3px;}.cls-8{stroke:#5ec292;}.cls-9{stroke:#ffcd39;}.cls-10{font-size:40px;}</style><symbol id="Undo_white" data-name="Undo_white" viewBox="0 0 102 122.43"><g id="_Group_3" data-name="&lt;Group&gt;"><g id="Undo"><circle id="_Path_6" data-name="&lt;Path&gt;" class="cls-4" cx="51" cy="50.71" r="49.14"/><path id="_Path_7" data-name="&lt;Path&gt;" class="cls-5" d="M52.58,25.16a25.44,25.44,0,0,0-19.44,9l-8.67-4.42L28,46.34l17.6-4.76L35.49,35.43a21.43,21.43,0,0,1,17.1-7.72A23,23,0,1,1,35.37,65.81l-1.82,1.82A25.5,25.5,0,1,0,52.58,25.16Z"/></g><text class="cls-6" transform="translate(35.75 119.03)">Undo</text></g></symbol><symbol id="SayWord_white" data-name="SayWord_white" viewBox="0 0 99.89 121.62"><g id="_Group_4" data-name="&lt;Group&gt;"><g id="Speak_orange_2" data-name="Speak_orange 2"><text class="cls-1" transform="translate(24.05 118.26)">S<tspan x="7.84" y="0">a</tspan><tspan x="14.99" y="0">y </tspan><tspan x="24.91" y="0">W</tspan><tspan x="36.21" y="0">o</tspan><tspan x="43.77" y="0">r</tspan><tspan x="48.34" y="0">d</tspan></text></g><g id="SayWord_white-3" data-name="SayWord_white"><g id="Speaker-2" data-name="Speaker"><circle id="_Path_8" data-name="&lt;Path&gt;" class="cls-2" cx="49.95" cy="49.95" r="48.4" transform="translate(-0.15 99.74) rotate(-89.83)"/><g id="_Group_5" data-name="&lt;Group&gt;"><path id="_Compound_Path_" data-name="&lt;Compound Path&gt;" class="cls-3" d="M49.13,73.44l-8.66-8.68a3,3,0,0,0-2.11-.88l-9.7,0a3,3,0,0,1-3-3l0.07-22.1a3,3,0,0,1,3-3l9.71,0a3,3,0,0,0,2.1-.85l8.74-8.52a3,3,0,0,1,5.08,2.15L54.24,71.34A3,3,0,0,1,49.13,73.44ZM29.28,60.85l11.34,0A0.58,0.58,0,0,1,41,61l9.23,9.22a0.58,0.58,0,0,0,1-.41l0.12-40a0.58,0.58,0,0,0-1-.41l-9.28,9.22a0.58,0.58,0,0,1-.41.17l-11.34,0a0.58,0.58,0,0,0-.58.58L28.7,60.27A0.58,0.58,0,0,0,29.28,60.85Z"/><g id="_Group_6" data-name="&lt;Group&gt;"><g id="_Group_7" data-name="&lt;Group&gt;"><path id="_Path_9" data-name="&lt;Path&gt;" class="cls-3" d="M63.42,50L74.2,50Z"/><path id="_Path_10" data-name="&lt;Path&gt;" class="cls-3" d="M63.08,50h0a1.5,1.5,0,0,1,1.49-1.51l7.77,0A1.5,1.5,0,0,1,73.87,50h0a1.5,1.5,0,0,1-1.49,1.51l-7.77,0A1.5,1.5,0,0,1,63.08,50Z"/></g><g id="_Group_8" data-name="&lt;Group&gt;"><line id="_Path_11" data-name="&lt;Path&gt;" class="cls-3" x1="63.45" y1="41.33" x2="70.99" y2="33.83"/><path id="_Path_12" data-name="&lt;Path&gt;" class="cls-3" d="M63.11,41.33h0a1.5,1.5,0,0,1,0-2.13l5.41-5.38a1.5,1.5,0,0,1,2.13,0h0a1.5,1.5,0,0,1,0,2.13l-5.41,5.38A1.5,1.5,0,0,1,63.11,41.33Z"/></g><g id="_Group_9" data-name="&lt;Group&gt;"><line id="_Path_13" data-name="&lt;Path&gt;" class="cls-3" x1="63.39" y1="58.82" x2="70.52" y2="65.99"/><path id="_Path_14" data-name="&lt;Path&gt;" class="cls-3" d="M68.05,66l-5-5a1.5,1.5,0,0,1,0-2.13h0a1.5,1.5,0,0,1,2.13,0l5,5a1.5,1.5,0,0,1,0,2.13h0A1.5,1.5,0,0,1,68.05,66Z"/></g></g></g></g></g></g></symbol></defs><title>preview_0</title><g id="_Group_" data-name="&lt;Group&gt;" class="cls-7"><line id="_Path_" data-name="&lt;Path&gt;" class="cls-8" x1="82" y1="44.72" x2="154" y2="44.72"/><line id="_Path_2" data-name="&lt;Path&gt;" class="cls-8" x1="164" y1="44.72" x2="236" y2="44.72"/><line id="_Path_3" data-name="&lt;Path&gt;" class="cls-9" x1="246" y1="44.72" x2="318" y2="44.72"/><line id="_Path_4" data-name="&lt;Path&gt;" class="cls-9" x1="328" y1="44.72" x2="400" y2="44.72"/><line id="_Path_5" data-name="&lt;Path&gt;" class="cls-8" y1="44.72" x2="72" y2="44.72"/><text class="cls-10" transform="translate(27.74 34.22)">S</text><text class="cls-10" transform="translate(108.41 34.22)">U</text><text class="cls-10" transform="translate(189.74 34.22)">P</text></g><g id="_Group_2" data-name="&lt;Group&gt;" class="cls-7"><use id="Undo_white-3" data-name="Undo_white" width="102" height="122.43" transform="translate(139.78 148.14) scale(0.46)" xlink:href="#Undo_white"/><use id="SayWord_white-4" data-name="SayWord_white" width="99.89" height="121.62" transform="translate(214.23 148.49) scale(0.46)" xlink:href="#SayWord_white"/></g></svg>