<svg id="Layer_3" data-name="Layer 3" xmlns="http://www.w3.org/2000/svg" xmlns:xlink="http://www.w3.org/1999/xlink" viewBox="0 0 180 40"><defs><style>.cls-1{fill:url(#New_Gradient_Swatch_8);}.cls-2{fill:url(#New_Gradient_Swatch_8-2);}</style><radialGradient id="New_Gradient_Swatch_8" cx="80.74" cy="8.94" r="16.19" gradientUnits="userSpaceOnUse"><stop offset="0" stop-color="#ffd54f"/><stop offset="1" stop-color="#ffa000"/></radialGradient><radialGradient id="New_Gradient_Swatch_8-2" cx="432" cy="561.55" r="197.49" xlink:href="#New_Gradient_Swatch_8"/></defs><title>save_button</title><polygon class="cls-1" points="80.42 23 86.22 23 83.31 15.02 80.42 23"/><path class="cls-2" d="M602,612a20,20,0,0,0-20-20H442a20,20,0,0,0-20,20h0a20,20,0,0,0,20,20H582a20,20,0,0,0,20-20h0Zm-107.63,8a6.9,6.9,0,0,1-4.32,1.25,8,8,0,0,1-3.28-.67,5.56,5.56,0,0,1-2.35-1.86,4.54,4.54,0,0,1-.83-2.68h2.26a3,3,0,0,0,1.14,2.46,4.81,4.81,0,0,0,3.05.91,4.42,4.42,0,0,0,2.73-.72,2.36,2.36,0,0,0,.95-2,2.31,2.31,0,0,0-.88-1.94,10.14,10.14,0,0,0-3.19-1.35,10.58,10.58,0,0,1-4.21-2,3.91,3.91,0,0,1-1.32-3,4.13,4.13,0,0,1,1.61-3.33,6.4,6.4,0,0,1,4.19-1.32,7,7,0,0,1,3.13.68,5.32,5.32,0,0,1,2.13,1.95,4.91,4.91,0,0,1,.76,2.69h-2.26a3.33,3.33,0,0,0-1-2.51,4,4,0,0,0-2.78-.92,4.09,4.09,0,0,0-2.6.72,2.43,2.43,0,0,0-.93,2,2.19,2.19,0,0,0,.88,1.76,8.68,8.68,0,0,0,3,1.32,14,14,0,0,1,3.33,1.32,5,5,0,0,1,1.78,1.68,4.29,4.29,0,0,1,.58,2.26A4,4,0,0,1,494.37,620Zm16.15,1-1.63-4h-7.15l-1.61,4h-2.32l6.52-17h2l6.53,17h-2.31Zm10.84,0h-2l-6.32-17h2.45l4.85,14.07L525.23,604h2.46ZM541,621H531V604h10v2h-8v5h7v2h-7v6h8v2Z" transform="translate(-422 -592)"/></svg>