<svg id="Layer_2" data-name="Layer 2" xmlns="http://www.w3.org/2000/svg" viewBox="0 0 99.89 99.89"><defs><style>.cls-1{fill:#fff8e1;stroke-width:3.09px;}.cls-1,.cls-2{stroke:#00072d;stroke-miterlimit:10;}.cls-2{fill:#00072d;stroke-width:2.08px;}</style></defs><title>speak_button</title><g id="SayWord_white"><g id="SayWord_white-2" data-name="SayWord_white"><g id="Speaker"><g id="_Group_" data-name="&lt;Group&gt;"><circle id="_Path_" data-name="&lt;Path&gt;" class="cls-1" cx="727.17" cy="1510.35" r="48.4" transform="translate(-1462.6 772.54) rotate(-89.83)"/><g id="_Group_2" data-name="&lt;Group&gt;"><path id="_Compound_Path_" data-name="&lt;Compound Path&gt;" class="cls-2" d="M726.35,1533.85l-8.66-8.68a3,3,0,0,0-2.11-.88l-9.7,0a3,3,0,0,1-3-3l0.07-22.1a3,3,0,0,1,3-3l9.71,0a3,3,0,0,0,2.1-.85l8.74-8.52a3,3,0,0,1,5.08,2.15l-0.13,42.76A3,3,0,0,1,726.35,1533.85Zm-19.86-12.6,11.34,0a0.58,0.58,0,0,1,.41.17l9.23,9.22a0.58,0.58,0,0,0,1-.41l0.12-40a0.58,0.58,0,0,0-1-.41l-9.28,9.22a0.58,0.58,0,0,1-.41.17l-11.34,0a0.58,0.58,0,0,0-.58.58l-0.06,20.91A0.58,0.58,0,0,0,706.5,1521.25Z" transform="translate(-677.22 -1460.4)"/><g id="_Group_3" data-name="&lt;Group&gt;"><g id="_Group_4" data-name="&lt;Group&gt;"><path id="_Path_2" data-name="&lt;Path&gt;" class="cls-2" d="M740.64,1510.43l10.78-.07Z" transform="translate(-677.22 -1460.4)"/><rect id="_Path_3" data-name="&lt;Path&gt;" class="cls-2" x="740.3" y="1508.89" width="10.78" height="3.01" rx="1.5" ry="1.5" transform="translate(-686.89 -1455.59) rotate(-0.37)"/></g><g id="_Group_5" data-name="&lt;Group&gt;"><line id="_Path_4" data-name="&lt;Path&gt;" class="cls-2" x1="63.45" y1="41.33" x2="70.99" y2="33.83"/><rect id="_Path_5" data-name="&lt;Path&gt;" class="cls-2" x="738.78" y="1496.48" width="10.64" height="3.01" rx="1.5" ry="1.5" transform="translate(-1516.89 -500.29) rotate(-44.83)"/></g><g id="_Group_6" data-name="&lt;Group&gt;"><line id="_Path_6" data-name="&lt;Path&gt;" class="cls-2" x1="63.39" y1="58.82" x2="70.52" y2="65.99"/><rect id="_Path_7" data-name="&lt;Path&gt;" class="cls-2" x="742.33" y="1517.75" width="3.01" height="10.11" rx="1.5" ry="1.5" transform="translate(-1534.47 -493.26) rotate(-44.83)"/></g></g></g></g></g></g></g></svg>