<svg id="Layer_2" data-name="Layer 2" xmlns="http://www.w3.org/2000/svg" xmlns:xlink="http://www.w3.org/1999/xlink" viewBox="0 0 114.05 114.05"><defs><style>.cls-1{fill:#fff8e1;stroke-miterlimit:10;stroke-width:3px;stroke:url(#New_Gradient_Swatch_6);}.cls-2{fill:#00072d;}</style><radialGradient id="New_Gradient_Swatch_6" cx="57.03" cy="57.03" r="57.03" gradientUnits="userSpaceOnUse"><stop offset="0" stop-color="#333957"/><stop offset="1" stop-color="#00072d"/></radialGradient></defs><title>speaks_icon</title><circle class="cls-1" cx="57.03" cy="57.03" r="55.53"/><g id="_Group_" data-name="&lt;Group&gt;"><path id="_Compound_Path_" data-name="&lt;Compound Path&gt;" class="cls-2" d="M509.31,2138.66l-8.92-8.95a3.08,3.08,0,0,0-2.17-.91l-10,0a3.08,3.08,0,0,1-3.07-3.09l0.07-22.78a3.08,3.08,0,0,1,3.09-3.07l10,0a3.08,3.08,0,0,0,2.16-.88l9-8.78a3.08,3.08,0,0,1,5.23,2.22l-0.13,44.07A3.08,3.08,0,0,1,509.31,2138.66Zm-20.47-13,11.68,0a0.6,0.6,0,0,1,.42.17l9.51,9.5a0.6,0.6,0,0,0,1-.42l0.12-41.25a0.6,0.6,0,0,0-1-.42l-9.56,9.5a0.6,0.6,0,0,1-.42.17l-11.69,0a0.6,0.6,0,0,0-.6.59l-0.07,21.55A0.6,0.6,0,0,0,488.84,2125.68Z" transform="translate(-453.12 -2057.42)"/><g id="_Group_2" data-name="&lt;Group&gt;"><g id="_Group_3" data-name="&lt;Group&gt;"><path id="_Path_" data-name="&lt;Path&gt;" class="cls-2" d="M524,2114.53l11.11-.07Z" transform="translate(-453.12 -2057.42)"/><rect id="_Path_2" data-name="&lt;Path&gt;" class="cls-2" x="523.68" y="2112.95" width="11.11" height="3.1" rx="1.55" ry="1.55" transform="translate(-466.67 -2053.99) rotate(-0.37)"/></g><g id="_Group_4" data-name="&lt;Group&gt;"><line id="_Path_3" data-name="&lt;Path&gt;" class="cls-2" x1="70.94" y1="48.14" x2="78.72" y2="40.41"/><rect id="_Path_4" data-name="&lt;Path&gt;" class="cls-2" x="522.12" y="2100.15" width="10.96" height="3.1" rx="1.55" ry="1.55" transform="translate(-1781.33 -1074.41) rotate(-44.83)"/></g><g id="_Group_5" data-name="&lt;Group&gt;"><line id="_Path_5" data-name="&lt;Path&gt;" class="cls-2" x1="70.89" y1="66.17" x2="78.23" y2="73.55"/><rect id="_Path_6" data-name="&lt;Path&gt;" class="cls-2" x="525.78" y="2122.08" width="3.1" height="10.42" rx="1.55" ry="1.55" transform="translate(-1799.45 -1067.16) rotate(-44.83)"/></g></g></g></svg>