<svg id="Layer_2" data-name="Layer 2" xmlns="http://www.w3.org/2000/svg" viewBox="0 0 126.3 27.8"><defs><style>.cls-1{fill:#fff8e1;}.cls-2{fill:none;stroke:#fff8e1;stroke-miterlimit:10;stroke-width:3px;}</style></defs><title>start_button</title><g id="_Group_" data-name="&lt;Group&gt;"><g id="_Group_2" data-name="&lt;Group&gt;"><path id="_Compound_Path_" data-name="&lt;Compound Path&gt;" class="cls-1" d="M437.42,1750.26a12.33,12.33,0,0,0,6.24,1.76c3.56,0,5.64-1.88,5.64-4.6,0-2.52-1.44-4-5.08-5.36-4.4-1.56-7.12-3.84-7.12-7.64,0-4.2,3.48-7.32,8.72-7.32a12.24,12.24,0,0,1,6,1.32l-1,2.84a10.74,10.74,0,0,0-5.12-1.28c-3.68,0-5.08,2.2-5.08,4,0,2.52,1.64,3.76,5.36,5.2,4.56,1.76,6.88,4,6.88,7.92,0,4.16-3.08,7.76-9.44,7.76a13.94,13.94,0,0,1-6.88-1.72Z" transform="translate(-436.54 -1727.1)"/><path id="_Compound_Path_2" data-name="&lt;Compound Path&gt;" class="cls-1" d="M463.74,1730.5h-8.2v-3h20v3h-8.24v24h-3.52v-24Z" transform="translate(-436.54 -1727.1)"/><path id="_Compound_Path_3" data-name="&lt;Compound Path&gt;" class="cls-1" d="M480.86,1746l-2.8,8.48h-3.6l9.16-27h4.2l9.2,27H493.3l-2.88-8.48h-9.56Zm8.84-2.72-2.64-7.76c-0.6-1.76-1-3.36-1.4-4.92h-0.08c-0.4,1.6-.84,3.24-1.36,4.88l-2.64,7.8h8.12Z" transform="translate(-436.54 -1727.1)"/><path id="_Compound_Path_4" data-name="&lt;Compound Path&gt;" class="cls-1" d="M502,1727.9a36.29,36.29,0,0,1,6.68-.56c3.72,0,6.12.68,7.8,2.2a6.71,6.71,0,0,1,2.12,5.12,7.08,7.08,0,0,1-5.08,6.88v0.12c2.08,0.72,3.32,2.64,4,5.44a42.94,42.94,0,0,0,2.08,7.4h-3.6a35,35,0,0,1-1.8-6.44c-0.8-3.72-2.24-5.12-5.4-5.24h-3.28v11.68H502v-26.6Zm3.48,12.28H509c3.72,0,6.08-2,6.08-5.12,0-3.48-2.52-5-6.2-5a14.32,14.32,0,0,0-3.44.32v9.84Z" transform="translate(-436.54 -1727.1)"/><path id="_Compound_Path_5" data-name="&lt;Compound Path&gt;" class="cls-1" d="M530,1730.5h-8.2v-3h20v3H533.5v24H530v-24Z" transform="translate(-436.54 -1727.1)"/></g><polyline id="_Path_" data-name="&lt;Path&gt;" class="cls-2" points="114.32 5.46 124.17 15.31 114.53 24.96"/></g></svg>