<svg id="Layer_2" data-name="Layer 2" xmlns="http://www.w3.org/2000/svg" viewBox="0 0 167.12 36.93"><defs><style>.cls-1{fill:#00072d;}.cls-2{fill:none;stroke:#00072d;stroke-miterlimit:10;stroke-width:3px;}</style></defs><title>start_button_dark</title><g id="_Group_" data-name="&lt;Group&gt;"><g id="_Group_2" data-name="&lt;Group&gt;"><path id="_Compound_Path_" data-name="&lt;Compound Path&gt;" class="cls-1" d="M427.52,2332.53a16.38,16.38,0,0,0,8.29,2.34c4.73,0,7.49-2.5,7.49-6.11,0-3.35-1.91-5.26-6.75-7.12-5.85-2.07-9.46-5.1-9.46-10.15,0-5.58,4.62-9.73,11.58-9.73a16.26,16.26,0,0,1,7.92,1.75l-1.27,3.77a14.27,14.27,0,0,0-6.8-1.7c-4.89,0-6.75,2.92-6.75,5.37,0,3.35,2.18,5,7.12,6.91,6.06,2.34,9.14,5.26,9.14,10.52,0,5.53-4.09,10.31-12.54,10.31a18.52,18.52,0,0,1-9.14-2.29Z" transform="translate(-426.35 -2301.76)"/><path id="_Compound_Path_2" data-name="&lt;Compound Path&gt;" class="cls-1" d="M462.49,2306.28H451.59v-3.93h26.52v3.93H467.16v31.89h-4.68v-31.89Z" transform="translate(-426.35 -2301.76)"/><path id="_Compound_Path_3" data-name="&lt;Compound Path&gt;" class="cls-1" d="M485.24,2326.9l-3.72,11.27h-4.78l12.17-35.82h5.58l12.22,35.82h-4.94l-3.83-11.27h-12.7Zm11.74-3.61L493.47,2313c-0.8-2.34-1.33-4.46-1.86-6.54h-0.11c-0.53,2.13-1.12,4.3-1.81,6.48l-3.51,10.36H497Z" transform="translate(-426.35 -2301.76)"/><path id="_Compound_Path_4" data-name="&lt;Compound Path&gt;" class="cls-1" d="M513.3,2302.82a48.22,48.22,0,0,1,8.87-.74c4.94,0,8.13.9,10.36,2.92a8.92,8.92,0,0,1,2.82,6.8,9.4,9.4,0,0,1-6.75,9.14v0.16c2.76,1,4.41,3.51,5.26,7.23,1.17,5,2,8.45,2.76,9.83h-4.78c-0.58-1-1.38-4.09-2.39-8.56-1.06-4.94-3-6.8-7.17-7h-4.36v15.52H513.3v-35.34Zm4.62,16.32h4.73c4.94,0,8.08-2.71,8.08-6.8,0-4.62-3.35-6.64-8.24-6.7a19,19,0,0,0-4.57.42v13.07Z" transform="translate(-426.35 -2301.76)"/><path id="_Compound_Path_5" data-name="&lt;Compound Path&gt;" class="cls-1" d="M550.5,2306.28H539.61v-3.93h26.52v3.93H555.18v31.89H550.5v-31.89Z" transform="translate(-426.35 -2301.76)"/></g><polyline id="_Path_" data-name="&lt;Path&gt;" class="cls-2" points="151.91 5.6 165 18.7 152.19 31.51"/></g></svg>